STARTFONT 2.1
COMMENT
COMMENT Converted from OpenType font "karma2.otf" by "otf2bdf 3.0".
COMMENT
FONT -FreeType-Karma Future-Medium-R-Normal--25-180-100-100-P-127-ISO10646-1
SIZE 18 100 100
FONTBOUNDINGBOX 29 30 -5 -4
STARTPROPERTIES 19
FOUNDRY "FreeType"
FAMILY_NAME "Karma Future"
WEIGHT_NAME "Medium"
SLANT "R"
SETWIDTH_NAME "Normal"
ADD_STYLE_NAME ""
PIXEL_SIZE 25
POINT_SIZE 180
RESOLUTION_X 100
RESOLUTION_Y 100
SPACING "P"
AVERAGE_WIDTH 127
CHARSET_REGISTRY "ISO10646"
CHARSET_ENCODING "1"
FONT_ASCENT 25
FONT_DESCENT 4
COPYRIGHT "Released in 2022 under CC0 license. No rights reserved."
_OTF_FONTFILE "karma2.otf"
_OTF_PSNAME "KarmaFuture-Regular"
ENDPROPERTIES
CHARS 383
STARTCHAR 0017
ENCODING 23
SWIDTH 240 0
DWIDTH 6 0
BBX 0 0 0 0
BITMAP
ENDCHAR
STARTCHAR 0020
ENCODING 32
SWIDTH 240 0
DWIDTH 6 0
BBX 0 0 0 0
BITMAP
ENDCHAR
STARTCHAR 0021
ENCODING 33
SWIDTH 320 0
DWIDTH 8 0
BBX 7 23 1 0
BITMAP
78
48
4C
CC
86
86
86
86
86
86
CE
CE
CE
4E
7C
7C
7C
4C
4C
4C
7C
7C
7C
ENDCHAR
STARTCHAR 0022
ENCODING 34
SWIDTH 440 0
DWIDTH 11 0
BBX 9 11 1 12
BITMAP
FF00
9980
9980
9980
9980
9980
9980
9980
FF80
FF80
FF80
ENDCHAR
STARTCHAR 0023
ENCODING 35
SWIDTH 600 0
DWIDTH 15 0
BBX 15 21 -1 1
BITMAP
07F8
04CC
04CC
04CC
3CCE
2006
2006
399E
399E
333E
1338
F338
C018
E678
6678
6678
2678
2660
3FE0
3FE0
3FE0
ENDCHAR
STARTCHAR 0024
ENCODING 36
SWIDTH 520 0
DWIDTH 13 0
BBX 11 23 1 0
BITMAP
1E00
1300
1380
7380
C0C0
8060
93E0
93E0
93E0
80C0
C060
C060
F260
F260
8060
8060
C0E0
F3E0
73E0
73C0
3F00
1F00
1F00
ENDCHAR
STARTCHAR 0025
ENCODING 37
SWIDTH 600 0
DWIDTH 15 0
BBX 14 20 1 0
BITMAP
003C
7C6C
44CC
468C
478C
471C
7E3C
7C7C
7C78
18F0
31F0
23E0
63F8
C718
8F18
8F18
9F18
FDF8
FDF8
F8F8
ENDCHAR
STARTCHAR 0026
ENCODING 38
SWIDTH 560 0
DWIDTH 14 0
BBX 12 22 1 0
BITMAP
1F00
1180
3180
64C0
4CC0
4CC0
4CC0
49C0
63C0
43C0
C380
83E0
9930
9870
9870
9CF0
8870
8860
C330
FFF0
7FF0
7FF0
ENDCHAR
STARTCHAR 0027
ENCODING 39
SWIDTH 240 0
DWIDTH 6 0
BBX 5 11 1 12
BITMAP
F0
98
98
98
98
98
98
98
F8
F8
F8
ENDCHAR
STARTCHAR 0028
ENCODING 40
SWIDTH 440 0
DWIDTH 11 0
BBX 9 23 1 0
BITMAP
1F00
3180
2780
6780
4780
CE00
8E00
8E00
8C00
8C00
8C00
8C00
8C00
8C00
CC00
CC00
C600
6600
6700
3180
3F80
1F80
0F80
ENDCHAR
STARTCHAR 0029
ENCODING 41
SWIDTH 440 0
DWIDTH 11 0
BBX 9 23 1 0
BITMAP
F800
8C00
E400
E600
E200
7300
3180
3180
1180
1180
1180
1180
1180
1180
1380
3380
2380
E780
E700
8F00
FE00
FE00
FC00
ENDCHAR
STARTCHAR 002A
ENCODING 42
SWIDTH 520 0
DWIDTH 13 0
BBX 11 16 1 3
BITMAP
FFC0
9260
9260
9260
C0E0
E1E0
8060
8060
E1E0
C0E0
9260
9260
9260
FFE0
FFE0
FFE0
ENDCHAR
STARTCHAR 002B
ENCODING 43
SWIDTH 520 0
DWIDTH 13 0
BBX 11 15 1 3
BITMAP
1E00
1300
1300
1300
F3C0
8060
8060
8060
F3E0
F3E0
F3E0
1300
1F00
1F00
0F00
ENDCHAR
STARTCHAR 002C
ENCODING 44
SWIDTH 280 0
DWIDTH 7 0
BBX 6 11 1 -3
BITMAP
F8
8C
8C
8C
8C
CC
9C
FC
FC
F8
F8
ENDCHAR
STARTCHAR 002D
ENCODING 45
SWIDTH 520 0
DWIDTH 13 0
BBX 11 7 1 7
BITMAP
FFC0
8060
8060
8060
FFE0
FFE0
FFE0
ENDCHAR
STARTCHAR 002E
ENCODING 46
SWIDTH 280 0
DWIDTH 7 0
BBX 6 8 1 0
BITMAP
F8
8C
8C
8C
8C
FC
FC
FC
ENDCHAR
STARTCHAR 002F
ENCODING 47
SWIDTH 560 0
DWIDTH 14 0
BBX 15 21 -1 1
BITMAP
001C
0016
0036
0066
00C6
008E
018E
031E
063C
047C
0C78
18F0
31F0
23E0
E3C0
C780
CF80
CF00
FE00
7C00
7C00
ENDCHAR
STARTCHAR 0030
ENCODING 48
SWIDTH 640 0
DWIDTH 16 0
BBX 14 23 1 0
BITMAP
1FC0
7070
4018
4018
CF9C
9F8C
9F0C
9F0C
9E4C
9CCC
99CC
99CC
93CC
87CC
8FCC
8FCC
CF9C
CF9C
C01C
7078
7FF8
7FF8
1FE0
ENDCHAR
STARTCHAR 0031
ENCODING 49
SWIDTH 520 0
DWIDTH 13 0
BBX 11 23 1 0
BITMAP
1E00
3300
2300
E300
8300
8300
F300
F300
F300
1300
1300
1300
1300
1300
1300
1300
F3C0
8060
8060
8060
FFE0
FFE0
FFE0
ENDCHAR
STARTCHAR 0032
ENCODING 50
SWIDTH 640 0
DWIDTH 16 0
BBX 14 23 1 0
BITMAP
3FF0
6030
4018
C018
8F8C
9FCC
9F8C
9F8C
FF1C
FE3C
FC7C
0C78
18F0
31F0
23E0
63C0
C7FC
800C
800C
800C
FFFC
FFFC
FFFC
ENDCHAR
STARTCHAR 0033
ENCODING 51
SWIDTH 640 0
DWIDTH 16 0
BBX 14 23 1 0
BITMAP
3FF0
6030
4018
C018
8F8C
9FCC
FFCC
FFCC
FF8C
101C
103C
103C
1F9C
FFCC
9FCC
9FCC
8F8C
C01C
C01C
E03C
7FF8
3FF8
3FF0
ENDCHAR
STARTCHAR 0034
ENCODING 52
SWIDTH 640 0
DWIDTH 16 0
BBX 14 23 1 0
BITMAP
03E0
0630
0430
0C30
1830
3130
2330
6330
C730
8F30
9F30
9F3C
800C
800C
FF3C
FF3C
FF3C
FF3C
0130
0130
01F0
01F0
00F0
ENDCHAR
STARTCHAR 0035
ENCODING 53
SWIDTH 640 0
DWIDTH 16 0
BBX 14 23 1 0
BITMAP
FFFC
800C
800C
800C
9FFC
9FFC
9FFC
9FF0
8030
C018
FF8C
7F8C
7FCC
FFCC
9FCC
9FCC
8F8C
C01C
C01C
E03C
7FF8
3FF8
3FF0
ENDCHAR
STARTCHAR 0036
ENCODING 54
SWIDTH 640 0
DWIDTH 16 0
BBX 14 23 1 0
BITMAP
07E0
0C30
0830
1830
31F0
63F0
47F0
4780
CFF0
8030
8018
8018
8F8C
9FCC
9FCC
9FCC
8F8C
C01C
C01C
E03C
7FF8
3FF8
3FF0
ENDCHAR
STARTCHAR 0037
ENCODING 55
SWIDTH 640 0
DWIDTH 16 0
BBX 14 23 1 0
BITMAP
FFFC
800C
800C
800C
FF9C
FF9C
FF3C
0138
0338
0270
0270
0670
04E0
0CE0
09E0
09C0
19C0
13C0
1380
1380
1F00
1F00
0F00
ENDCHAR
STARTCHAR 0038
ENCODING 56
SWIDTH 640 0
DWIDTH 16 0
BBX 14 23 1 0
BITMAP
1FC0
3060
2030
6030
4718
4F98
4F98
4F98
4718
6038
4018
C01C
8F8C
9FCC
9FCC
9FCC
8F8C
C01C
C01C
E03C
7FF8
3FF8
3FF0
ENDCHAR
STARTCHAR 0039
ENCODING 57
SWIDTH 640 0
DWIDTH 16 0
BBX 14 23 1 0
BITMAP
3FF0
6030
4018
C018
8F8C
9FCC
9FCC
9FCC
8F8C
C00C
E00C
600C
7F9C
3F1C
3E3C
0638
3C78
20F8
20F0
21E0
3FC0
3FC0
3F80
ENDCHAR
STARTCHAR 003A
ENCODING 58
SWIDTH 280 0
DWIDTH 7 0
BBX 6 17 1 1
BITMAP
F8
8C
8C
8C
8C
FC
FC
FC
FC
F8
8C
8C
8C
8C
FC
FC
FC
ENDCHAR
STARTCHAR 003B
ENCODING 59
SWIDTH 280 0
DWIDTH 7 0
BBX 6 21 1 -3
BITMAP
F8
8C
8C
8C
8C
FC
FC
FC
FC
F8
8C
8C
8C
8C
CC
CC
9C
FC
FC
F8
F8
ENDCHAR
STARTCHAR 003C
ENCODING 60
SWIDTH 520 0
DWIDTH 13 0
BBX 11 23 1 0
BITMAP
03C0
0660
0460
0C60
18E0
31E0
23E0
63C0
C780
8F00
8F00
8E00
C600
E300
7100
7180
38C0
1C40
0C60
0E60
07E0
03E0
01E0
ENDCHAR
STARTCHAR 003D
ENCODING 61
SWIDTH 560 0
DWIDTH 14 0
BBX 12 12 1 4
BITMAP
FFE0
8030
8030
8030
FFF0
FFF0
8030
8030
8030
FFF0
FFF0
FFF0
ENDCHAR
STARTCHAR 003E
ENCODING 62
SWIDTH 520 0
DWIDTH 13 0
BBX 11 23 1 0
BITMAP
F000
9800
8C00
8C00
C600
E300
7100
7180
38C0
1C60
1C60
0C60
18E0
31E0
23E0
63C0
C780
8F80
8F00
9E00
FC00
FC00
F800
ENDCHAR
STARTCHAR 003F
ENCODING 63
SWIDTH 600 0
DWIDTH 15 0
BBX 13 23 1 0
BITMAP
3FC0
6060
4030
C030
8F18
9F98
9F18
9F18
FE38
FC78
F8F8
08F0
09E0
09E0
09C0
0980
0F80
0980
0980
0980
0F80
0F80
0780
ENDCHAR
STARTCHAR 0040
ENCODING 64
SWIDTH 640 0
DWIDTH 16 0
BBX 14 23 1 0
BITMAP
3FE0
6030
4018
4018
CF9C
984C
904C
904C
924C
924C
924C
924C
924C
901C
983C
983C
8FF8
C038
C030
F030
7FF0
7FF0
1FF0
ENDCHAR
STARTCHAR 0041
ENCODING 65
SWIDTH 600 0
DWIDTH 15 0
BBX 13 23 1 0
BITMAP
0F00
0900
0980
1980
1080
10C0
10C0
30C0
2660
2660
2660
6670
4F30
4030
4030
C038
9F98
9F98
9F98
9898
F8F8
F8F8
F878
ENDCHAR
STARTCHAR 0042
ENCODING 66
SWIDTH 600 0
DWIDTH 15 0
BBX 13 23 1 0
BITMAP
FF80
80C0
8060
8060
9E30
9F30
9F30
9F30
9E30
8070
8030
8030
9F18
9F98
9F98
9F98
9F18
8038
8038
8078
FFF0
FFF0
FFE0
ENDCHAR
STARTCHAR 0043
ENCODING 67
SWIDTH 600 0
DWIDTH 15 0
BBX 13 23 1 0
BITMAP
1FC0
3060
2030
6030
4718
CF98
9FF8
9EF8
9C78
9800
9800
9800
9800
98F0
CC98
CD98
C718
6038
6038
3078
3FF0
1FF0
0FE0
ENDCHAR
STARTCHAR 0044
ENCODING 68
SWIDTH 600 0
DWIDTH 15 0
BBX 13 23 1 0
BITMAP
FF80
80C0
8060
8060
9E30
9F30
9F98
9F98
9F98
9F98
9F98
9F98
9F98
9F98
9F38
9F38
9E38
8078
8070
80F0
FFE0
FFE0
FFC0
ENDCHAR
STARTCHAR 0045
ENCODING 69
SWIDTH 600 0
DWIDTH 15 0
BBX 13 23 1 0
BITMAP
FFF0
8018
8018
8018
9FF8
9FF8
9FF8
9800
9FC0
8060
8060
8060
9FE0
9FE0
9FE0
9800
9FF0
8018
8018
8018
FFF8
FFF8
FFF8
ENDCHAR
STARTCHAR 0046
ENCODING 70
SWIDTH 560 0
DWIDTH 14 0
BBX 13 23 1 0
BITMAP
FFF0
8018
8018
8018
9FF8
9FF8
9FF8
9800
9FC0
8060
8060
8060
9FE0
9FE0
9FE0
9800
9800
9800
9800
9800
F800
F800
F800
ENDCHAR
STARTCHAR 0047
ENCODING 71
SWIDTH 600 0
DWIDTH 15 0
BBX 13 23 1 0
BITMAP
1FE0
3030
2018
6018
4798
CFF8
9FF8
9FF8
9FF0
9C18
9C18
9C18
9F98
9F98
CF98
CF98
C798
6018
6018
3018
3FF8
1FF8
0FF8
ENDCHAR
STARTCHAR 0048
ENCODING 72
SWIDTH 600 0
DWIDTH 15 0
BBX 13 23 1 0
BITMAP
F0F0
9898
9898
9898
9898
9898
9898
9898
9F98
8018
8018
8018
9F98
9F98
9F98
9898
9898
9898
9898
9898
F8F8
F8F8
F878
ENDCHAR
STARTCHAR 0049
ENCODING 73
SWIDTH 440 0
DWIDTH 11 0
BBX 9 23 1 0
BITMAP
FF00
8180
8180
8180
E780
E780
E780
2600
2600
2600
2600
2600
2600
2600
2600
2600
E700
8180
8180
8180
FF80
FF80
FF80
ENDCHAR
STARTCHAR 004A
ENCODING 74
SWIDTH 560 0
DWIDTH 14 0
BBX 14 23 -1 0
BITMAP
0078
004C
004C
004C
004C
004C
004C
004C
004C
004C
004C
004C
F84C
C84C
CC4C
CCCC
C79C
E01C
601C
7038
3FF8
1FF8
1FF0
ENDCHAR
STARTCHAR 004B
ENCODING 75
SWIDTH 600 0
DWIDTH 15 0
BBX 13 23 1 0
BITMAP
F0F0
9198
9918
9B18
9E38
9C78
98F8
98F0
91E0
83C0
83C0
8380
9180
98C0
9C60
9C60
9E30
9F18
9B18
9B98
F9F8
F8F8
F878
ENDCHAR
STARTCHAR 004C
ENCODING 76
SWIDTH 560 0
DWIDTH 14 0
BBX 13 23 1 0
BITMAP
F000
9800
9800
9800
9800
9800
9800
9800
9800
9800
9800
9800
9800
9800
9800
9800
9FF0
8018
8018
8018
FFF8
FFF8
FFF8
ENDCHAR
STARTCHAR 004D
ENCODING 77
SWIDTH 600 0
DWIDTH 15 0
BBX 13 23 1 0
BITMAP
F0F8
9998
8918
8D18
8F18
8618
8618
8618
9098
9098
9998
9998
9998
9F98
9F98
9F98
9898
9898
9898
9898
F8F8
F8F8
F878
ENDCHAR
STARTCHAR 004E
ENCODING 78
SWIDTH 600 0
DWIDTH 15 0
BBX 13 23 1 0
BITMAP
F0F8
9898
8898
8C98
8C98
8698
9398
9398
9398
9998
9998
9998
9C98
9C98
9E18
9E18
9B18
9B18
9918
9998
F8F8
F8F8
F878
ENDCHAR
STARTCHAR 004F
ENCODING 79
SWIDTH 600 0
DWIDTH 15 0
BBX 13 23 1 0
BITMAP
1F80
30C0
2060
6060
4630
CF30
9F98
9F98
9F98
9F98
9F98
9F98
9F98
9F98
CF38
CF38
C638
6078
6070
30F0
3FE0
1FE0
0FC0
ENDCHAR
STARTCHAR 0050
ENCODING 80
SWIDTH 600 0
DWIDTH 15 0
BBX 13 23 1 0
BITMAP
FFC0
8060
8030
8030
9F18
9F98
9F98
9F98
9F98
9F18
8038
8038
8078
9FF8
9FF0
9FE0
9800
9800
9800
9800
F800
F800
F800
ENDCHAR
STARTCHAR 0051
ENCODING 81
SWIDTH 600 0
DWIDTH 15 0
BBX 13 23 1 0
BITMAP
1F80
30C0
2060
6060
4630
CF30
9F98
9F98
9F98
9F98
9F98
9F98
9F98
9C98
CC38
CC38
C638
6018
6018
3098
3FF8
1FF8
0FF8
ENDCHAR
STARTCHAR 0052
ENCODING 82
SWIDTH 600 0
DWIDTH 15 0
BBX 13 23 1 0
BITMAP
FFC0
8060
8030
8030
9F18
9F98
9F98
9F98
9F98
9F18
8038
8038
8078
98F8
9C70
9C60
9E30
9F18
9B18
9B98
F9F8
F8F8
F878
ENDCHAR
STARTCHAR 0053
ENCODING 83
SWIDTH 600 0
DWIDTH 15 0
BBX 13 23 1 0
BITMAP
3FC0
6060
4030
C030
8F18
9F98
9FF8
9FF8
8FF8
C060
E030
6038
7F18
FF98
9F98
9F98
8F18
C038
C038
E078
7FF0
3FF0
3FE0
ENDCHAR
STARTCHAR 0054
ENCODING 84
SWIDTH 520 0
DWIDTH 13 0
BBX 11 23 1 0
BITMAP
FFC0
8060
8060
8060
F3E0
F3E0
F3E0
1300
1300
1300
1300
1300
1300
1300
1300
1300
1300
1300
1300
1300
1F00
1F00
0F00
ENDCHAR
STARTCHAR 0055
ENCODING 85
SWIDTH 600 0
DWIDTH 15 0
BBX 13 23 1 0
BITMAP
F0F0
9898
9898
9898
9898
9898
9898
9898
9898
9898
9898
9898
9898
9898
9898
9998
CF38
C038
C038
6070
7FF0
3FF0
1FE0
ENDCHAR
STARTCHAR 0056
ENCODING 86
SWIDTH 600 0
DWIDTH 15 0
BBX 13 23 1 0
BITMAP
F0F0
9098
9098
9898
9998
C938
C938
CD38
CF30
6670
6670
6670
6660
30E0
30E0
30E0
10C0
19C0
19C0
19C0
0F80
0F80
0F80
ENDCHAR
STARTCHAR 0057
ENCODING 87
SWIDTH 600 0
DWIDTH 15 0
BBX 13 23 1 0
BITMAP
F0F0
9898
9898
9898
9898
9898
9898
9898
9898
9F98
9998
9998
9998
9098
8618
8618
8F18
8F18
8F18
9D98
FDF8
FCF8
F878
ENDCHAR
STARTCHAR 0058
ENCODING 88
SWIDTH 600 0
DWIDTH 15 0
BBX 13 23 1 0
BITMAP
F0F0
9098
9898
9998
CD38
CF38
E678
6670
70F0
39E0
39E0
19C0
30C0
6660
4F20
4F30
CF30
9F98
9D98
9C98
F8F8
F8F8
F878
ENDCHAR
STARTCHAR 0059
ENCODING 89
SWIDTH 600 0
DWIDTH 15 0
BBX 13 23 1 0
BITMAP
F0F0
9098
9898
9998
CD38
CF38
E678
6670
6670
70E0
30E0
30E0
19C0
19C0
09C0
0980
0980
0980
0980
0980
0F80
0F80
0780
ENDCHAR
STARTCHAR 005A
ENCODING 90
SWIDTH 600 0
DWIDTH 15 0
BBX 13 23 1 0
BITMAP
FFF0
8018
8018
8018
FF38
FF38
FE78
0670
0CF0
09E0
09E0
19C0
3380
6780
4F80
4F00
CFF0
8018
8018
8018
FFF8
FFF8
FFF8
ENDCHAR
STARTCHAR 005B
ENCODING 91
SWIDTH 440 0
DWIDTH 11 0
BBX 9 23 1 0
BITMAP
FF00
8180
8180
8180
9F80
9F80
9F80
9800
9800
9800
9800
9800
9800
9800
9800
9800
9F00
8180
8180
8180
FF80
FF80
FF80
ENDCHAR
STARTCHAR 005C
ENCODING 92
SWIDTH 560 0
DWIDTH 14 0
BBX 15 21 -1 1
BITMAP
F000
D800
DC00
CC00
C600
E300
E300
7180
38C0
1C60
1C60
0E30
0718
038C
038C
01C6
00E6
0066
007E
003E
001E
ENDCHAR
STARTCHAR 005D
ENCODING 93
SWIDTH 440 0
DWIDTH 11 0
BBX 9 23 1 0
BITMAP
FF00
8180
8180
8180
F980
F980
F980
0980
0980
0980
0980
0980
0980
0980
0980
0980
F980
8180
8180
8180
FF80
FF80
FF80
ENDCHAR
STARTCHAR 005E
ENCODING 94
SWIDTH 640 0
DWIDTH 16 0
BBX 14 14 1 9
BITMAP
0700
0D80
08C0
18E0
3060
6230
4718
C718
8F8C
9ECC
FEFC
FC7C
F87C
F83C
ENDCHAR
STARTCHAR 005F
ENCODING 95
SWIDTH 640 0
DWIDTH 16 0
BBX 14 7 1 -3
BITMAP
FFFC
800C
800C
800C
FFFC
FFFC
FFFC
ENDCHAR
STARTCHAR 0060
ENCODING 96
SWIDTH 400 0
DWIDTH 10 0
BBX 8 8 1 14
BITMAP
F8
8C
8C
C6
E3
7F
3F
3F
ENDCHAR
STARTCHAR 0061
ENCODING 97
SWIDTH 600 0
DWIDTH 15 0
BBX 13 16 1 0
BITMAP
3FF0
6030
4018
7F98
7F98
6018
C018
9F98
9F98
9F98
8018
8018
C018
FFF8
7FF8
7FF8
ENDCHAR
STARTCHAR 0062
ENCODING 98
SWIDTH 600 0
DWIDTH 15 0
BBX 13 23 1 0
BITMAP
F000
9000
9800
9800
9800
9800
9800
9FC0
9060
8030
8F10
8F18
9F98
9F98
9F98
9F98
9F18
8038
8038
8078
FFF0
FFF0
FFE0
ENDCHAR
STARTCHAR 0063
ENCODING 99
SWIDTH 600 0
DWIDTH 15 0
BBX 13 16 1 0
BITMAP
3FC0
6060
C030
8F90
8F98
9FF8
9FF8
9FF8
9FF8
8F98
C038
C038
E078
7FF0
3FF0
3FE0
ENDCHAR
STARTCHAR 0064
ENCODING 100
SWIDTH 600 0
DWIDTH 15 0
BBX 13 23 1 0
BITMAP
00F0
0098
0098
0098
0098
0098
0098
3F98
6098
C018
8E18
8E18
9F98
9F98
9F98
9F98
8F98
C018
C018
E018
7FF8
3FF8
3FF8
ENDCHAR
STARTCHAR 0065
ENCODING 101
SWIDTH 600 0
DWIDTH 15 0
BBX 13 16 1 0
BITMAP
3FC0
6060
C030
8F98
8F98
8018
8038
9FF8
9FF8
8FF0
C030
C030
E070
7FF0
3FF0
3FE0
ENDCHAR
STARTCHAR 0066
ENCODING 102
SWIDTH 480 0
DWIDTH 12 0
BBX 11 23 1 0
BITMAP
0FC0
1860
1060
3060
23E0
27E0
27E0
E780
80C0
80C0
E7C0
E7C0
E7C0
E7C0
2600
2600
2600
2600
2600
2600
3E00
3E00
3E00
ENDCHAR
STARTCHAR 0067
ENCODING 103
SWIDTH 600 0
DWIDTH 15 0
BBX 13 19 1 -3
BITMAP
3FF8
6018
C018
8F98
8F98
9F98
8F18
C018
C018
E098
7F98
7F98
7F18
4038
4078
4078
7FF0
7FE0
7FE0
ENDCHAR
STARTCHAR 0068
ENCODING 104
SWIDTH 560 0
DWIDTH 14 0
BBX 12 23 1 0
BITMAP
F000
9000
9800
9800
9800
9800
9800
9F80
90C0
8060
8E20
8E30
9F30
9F30
9D30
9930
9930
9930
9930
9930
F9F0
F9F0
F8F0
ENDCHAR
STARTCHAR 0069
ENCODING 105
SWIDTH 400 0
DWIDTH 10 0
BBX 9 20 1 0
BITMAP
3C00
2600
2600
2600
7E00
4600
4600
6600
6600
6600
2600
2600
2600
E700
8180
8180
8180
FF80
FF80
FF80
ENDCHAR
STARTCHAR 006A
ENCODING 106
SWIDTH 400 0
DWIDTH 10 0
BBX 10 23 -1 -3
BITMAP
0780
04C0
04C0
04C0
0FC0
08C0
08C0
0CC0
0CC0
0CC0
04C0
04C0
04C0
04C0
FCC0
FCC0
CCC0
C0C0
E1C0
7FC0
7FC0
3F80
3F80
ENDCHAR
STARTCHAR 006B
ENCODING 107
SWIDTH 520 0
DWIDTH 13 0
BBX 11 23 1 0
BITMAP
F000
9000
9800
9800
9800
9800
9800
9F80
9CC0
98C0
91C0
91C0
83C0
83C0
8380
9180
98C0
9C40
9C60
9E60
FFE0
FBE0
F9E0
ENDCHAR
STARTCHAR 006C
ENCODING 108
SWIDTH 400 0
DWIDTH 10 0
BBX 9 23 1 0
BITMAP
7C00
4600
4600
4600
6600
6600
6600
2600
2600
2600
2600
2600
2600
2600
2600
2600
E700
8180
8180
8180
FF80
FF80
FF80
ENDCHAR
STARTCHAR 006D
ENCODING 109
SWIDTH 600 0
DWIDTH 15 0
BBX 13 16 1 0
BITMAP
FFC0
A660
8030
8010
8018
9998
9998
9998
9998
9998
9998
9998
9998
FFF8
FFF8
FFF8
ENDCHAR
STARTCHAR 006E
ENCODING 110
SWIDTH 560 0
DWIDTH 14 0
BBX 12 16 1 0
BITMAP
FF80
80C0
8060
9E20
9E30
9F30
9F30
9930
9930
9930
9930
9930
9930
F9F0
F9F0
F8F0
ENDCHAR
STARTCHAR 006F
ENCODING 111
SWIDTH 600 0
DWIDTH 15 0
BBX 13 16 1 0
BITMAP
3FC0
6060
C030
8F10
8F18
9F98
9F98
9F98
9F98
8F18
C038
C038
E078
7FF0
3FF0
3FE0
ENDCHAR
STARTCHAR 0070
ENCODING 112
SWIDTH 600 0
DWIDTH 15 0
BBX 13 19 1 -3
BITMAP
FFC0
8060
8030
9F10
9F18
9F98
9F98
8F18
8F18
8038
9078
9078
9FF0
9FE0
9FE0
9800
F800
F800
F800
ENDCHAR
STARTCHAR 0071
ENCODING 113
SWIDTH 600 0
DWIDTH 15 0
BBX 13 19 1 -3
BITMAP
3FF8
6018
C018
8F98
8F98
9F98
9F98
8F18
8F18
C018
E098
6098
7F98
3F98
3F98
0098
00F8
00F8
0078
ENDCHAR
STARTCHAR 0072
ENCODING 114
SWIDTH 520 0
DWIDTH 13 0
BBX 12 16 1 0
BITMAP
FFC0
9060
8030
8F30
8F30
9FF0
9FF0
9CF0
9800
9800
9800
9800
9800
F800
F800
F800
ENDCHAR
STARTCHAR 0073
ENCODING 115
SWIDTH 520 0
DWIDTH 13 0
BBX 11 16 1 0
BITMAP
7F80
C0C0
8060
9FE0
9FE0
80E0
C060
FE60
FE60
FE60
8060
8060
C0E0
FFE0
7FE0
7FC0
ENDCHAR
STARTCHAR 0074
ENCODING 116
SWIDTH 480 0
DWIDTH 12 0
BBX 11 22 1 0
BITMAP
3C00
2600
2600
2600
2600
2600
E780
80C0
80C0
E7C0
E7C0
E7C0
E7C0
2600
2600
27C0
2060
2060
3060
3FE0
1FE0
1FE0
ENDCHAR
STARTCHAR 0075
ENCODING 117
SWIDTH 600 0
DWIDTH 15 0
BBX 13 16 1 0
BITMAP
F0F0
9898
9898
9898
9898
9898
9898
9898
9998
8F18
C018
C018
E098
7FF8
3FF8
3FF8
ENDCHAR
STARTCHAR 0076
ENCODING 118
SWIDTH 600 0
DWIDTH 15 0
BBX 13 16 1 0
BITMAP
F0F8
9098
9998
C938
CD38
CF38
E678
6670
6670
30E0
30E0
10E0
19C0
0FC0
0FC0
0780
ENDCHAR
STARTCHAR 0077
ENCODING 119
SWIDTH 600 0
DWIDTH 15 0
BBX 13 16 1 0
BITMAP
FFF8
9998
9998
9998
9998
9998
9998
9098
9098
C038
C638
C638
6F70
7FF0
3FF0
1CE0
ENDCHAR
STARTCHAR 0078
ENCODING 120
SWIDTH 560 0
DWIDTH 14 0
BBX 12 16 1 0
BITMAP
F1E0
9B30
8E30
C470
C470
E0F0
71F0
60E0
60C0
C460
8E30
8E30
9F30
FDF0
FDF0
F8F0
ENDCHAR
STARTCHAR 0079
ENCODING 121
SWIDTH 520 0
DWIDTH 13 0
BBX 11 19 1 -3
BITMAP
F3C0
9A60
9E60
CCE0
CCE0
CCE0
E1E0
61C0
61C0
3380
3380
3380
2700
6700
4F00
4E00
7E00
7C00
7C00
ENDCHAR
STARTCHAR 007A
ENCODING 122
SWIDTH 560 0
DWIDTH 14 0
BBX 12 16 1 0
BITMAP
FFE0
8030
8070
FCF0
FCF0
F9E0
F3E0
27C0
6780
CFE0
8030
8030
8030
FFF0
FFF0
FFF0
ENDCHAR
STARTCHAR 007B
ENCODING 123
SWIDTH 480 0
DWIDTH 12 0
BBX 12 24 -1 -1
BITMAP
07E0
0C30
0830
1830
11F0
13F0
13F0
1380
3300
E300
C700
C700
E300
7300
7300
3300
1300
11E0
11F0
1830
1C30
0FF0
07F0
07F0
ENDCHAR
STARTCHAR 007C
ENCODING 124
SWIDTH 240 0
DWIDTH 6 0
BBX 5 23 1 0
BITMAP
F0
98
98
98
98
98
98
98
98
98
98
98
98
98
98
98
98
98
98
98
F8
F8
F8
ENDCHAR
STARTCHAR 007D
ENCODING 125
SWIDTH 480 0
DWIDTH 12 0
BBX 11 24 1 -1
BITMAP
FC00
8600
8200
8300
F180
F980
F980
1980
0980
08C0
0C40
0C60
08E0
09E0
09E0
09C0
1980
F180
F180
8380
8780
8780
FF00
FE00
ENDCHAR
STARTCHAR 007E
ENCODING 126
SWIDTH 600 0
DWIDTH 15 0
BBX 13 8 1 12
BITMAP
3EF8
6398
C938
9C78
9C78
FFF0
FFE0
FBE0
ENDCHAR
STARTCHAR 00A0
ENCODING 160
SWIDTH 240 0
DWIDTH 6 0
BBX 0 0 0 0
BITMAP
ENDCHAR
STARTCHAR 00A1
ENCODING 161
SWIDTH 320 0
DWIDTH 8 0
BBX 7 23 1 -3
BITMAP
78
4C
4C
7C
7C
7C
4C
4C
4C
CC
86
86
86
86
86
86
86
CE
CE
CE
7C
7C
7C
ENDCHAR
STARTCHAR 00A2
ENCODING 162
SWIDTH 600 0
DWIDTH 15 0
BBX 13 23 1 0
BITMAP
0F00
0980
09C0
39C0
6060
C030
8998
8998
99F8
99F8
99F8
9980
99F8
8998
C038
C038
E078
79F8
39F0
39E0
1F80
0F80
0780
ENDCHAR
STARTCHAR 00A3
ENCODING 163
SWIDTH 600 0
DWIDTH 15 0
BBX 13 23 1 0
BITMAP
1FC0
3060
2020
2030
6738
4F98
4FF8
4FF8
4FF8
CFC0
8060
8060
8060
CFE0
CFE0
CFE0
CFF0
8018
8018
8018
FFF8
FFF8
FFF8
ENDCHAR
STARTCHAR 00A4
ENCODING 164
SWIDTH 640 0
DWIDTH 16 0
BBX 14 21 1 1
BITMAP
F078
984C
98CC
CD9C
E73C
707C
7078
2230
2730
2730
2730
2230
3070
2730
6730
CF98
9FCC
9ECC
FCFC
F87C
F83C
ENDCHAR
STARTCHAR 00A5
ENCODING 165
SWIDTH 600 0
DWIDTH 15 0
BBX 13 23 1 0
BITMAP
F0F0
9098
9898
9998
CD38
CF38
E678
6670
6670
30E0
30E0
30E0
79E0
4030
79F0
79F0
4030
79F0
79F0
79F0
0F80
0F80
0780
ENDCHAR
STARTCHAR 00A6
ENCODING 166
SWIDTH 240 0
DWIDTH 6 0
BBX 5 23 1 0
BITMAP
F0
90
98
98
98
98
98
98
98
F8
F8
F8
98
98
98
98
98
98
98
98
F8
F8
F8
ENDCHAR
STARTCHAR 00A7
ENCODING 167
SWIDTH 520 0
DWIDTH 13 0
BBX 11 24 1 -1
BITMAP
7F80
C0C0
8040
8060
9FE0
9FE0
80E0
80C0
C060
9E60
9E60
9E60
9E60
80E0
C060
C060
FE60
FE60
FE60
8060
C0E0
FFE0
7FE0
7FC0
ENDCHAR
STARTCHAR 00A9
ENCODING 169
SWIDTH 720 0
DWIDTH 18 0
BBX 16 23 1 0
BITMAP
1FF8
3018
200C
600C
47C6
CFE6
9C73
9C73
9BB3
9BF3
9BF3
9BF3
9BB3
9C73
CFE7
CFE7
C7C7
600F
600E
301E
3FFC
1FFC
0FF8
ENDCHAR
STARTCHAR 00AA
ENCODING 170
SWIDTH 480 0
DWIDTH 12 0
BBX 10 19 1 4
BITMAP
3F00
6180
4080
40C0
7CC0
60C0
40C0
C0C0
9CC0
80C0
C0C0
C0C0
FFC0
80C0
80C0
80C0
FFC0
FFC0
FFC0
ENDCHAR
STARTCHAR 00AB
ENCODING 171
SWIDTH 600 0
DWIDTH 15 0
BBX 13 15 1 4
BITMAP
1EF0
3398
2318
6318
C638
8C78
8C78
8C70
C630
E318
7398
7398
3FF8
1FF8
1F78
ENDCHAR
STARTCHAR 00AC
ENCODING 172
SWIDTH 0 0
DWIDTH 0 0
BBX 0 0 0 0
BITMAP
ENDCHAR
STARTCHAR 00AD
ENCODING 173
SWIDTH 520 0
DWIDTH 13 0
BBX 11 7 1 7
BITMAP
FFC0
8060
8060
8060
FFE0
FFE0
FFE0
ENDCHAR
STARTCHAR 00AE
ENCODING 174
SWIDTH 720 0
DWIDTH 18 0
BBX 16 23 1 0
BITMAP
1FF8
3018
200C
600C
47C6
CFE6
9873
9873
9BB3
9BB3
9873
9873
9B73
9BB3
CFE7
CFE7
C7C7
600F
600E
301E
3FFC
1FFC
0FF8
ENDCHAR
STARTCHAR 00B0
ENCODING 176
SWIDTH 520 0
DWIDTH 13 0
BBX 11 15 1 8
BITMAP
3F00
6180
40C0
C0C0
8C60
9E60
9E60
9E60
8C60
C0E0
E1E0
61E0
7FC0
3FC0
3F80
ENDCHAR
STARTCHAR 00B2
ENCODING 178
SWIDTH 400 0
DWIDTH 10 0
BBX 10 15 1 8
BITMAP
7F00
C180
8080
80C0
9CC0
F8C0
F1C0
F1C0
63C0
C0C0
80C0
80C0
FFC0
FFC0
FFC0
ENDCHAR
STARTCHAR 00B3
ENCODING 179
SWIDTH 480 0
DWIDTH 12 0
BBX 10 15 1 8
BITMAP
7F00
C180
8080
80C0
9CC0
F1C0
F1C0
F1C0
9CC0
80C0
C1C0
C1C0
FFC0
7FC0
7F80
ENDCHAR
STARTCHAR 00B6
ENCODING 182
SWIDTH 600 0
DWIDTH 15 0
BBX 13 23 1 0
BITMAP
3FF0
6018
4018
C018
8198
8198
8198
8198
C198
E198
7998
3998
3998
1998
0998
0998
0998
0998
0998
0998
0FF8
0FF8
07F8
ENDCHAR
STARTCHAR 00B7
ENCODING 183
SWIDTH 280 0
DWIDTH 7 0
BBX 6 8 1 7
BITMAP
F8
8C
8C
8C
8C
FC
FC
FC
ENDCHAR
STARTCHAR 00B9
ENCODING 185
SWIDTH 440 0
DWIDTH 11 0
BBX 9 15 1 8
BITMAP
3C00
E600
8600
8600
8600
E600
E600
E600
E700
8180
8180
8180
FF80
FF80
FF80
ENDCHAR
STARTCHAR 00BA
ENCODING 186
SWIDTH 480 0
DWIDTH 12 0
BBX 10 19 1 4
BITMAP
3E00
6300
4180
C180
9CC0
9CC0
9CC0
9CC0
9CC0
C1C0
E3C0
E3C0
FF80
80C0
80C0
80C0
FFC0
FFC0
FFC0
ENDCHAR
STARTCHAR 00BB
ENCODING 187
SWIDTH 600 0
DWIDTH 15 0
BBX 13 15 1 4
BITMAP
F780
9CC0
8C60
8C60
C630
E318
E318
6318
C638
8C78
9CF8
9CF0
FFE0
FFE0
FBC0
ENDCHAR
STARTCHAR 00BC
ENCODING 188
SWIDTH 880 0
DWIDTH 22 0
BBX 21 23 1 0
BITMAP
3C0000
E60780
860580
860D80
861980
E63180
E62380
E66380
E7C7E0
818E20
811C30
811C30
FE3830
FC7230
F8E010
18E018
11E018
13FE38
13FE38
1F9E38
1F03F0
0F01F0
0001F0
ENDCHAR
STARTCHAR 00BD
ENCODING 189
SWIDTH 960 0
DWIDTH 24 0
BBX 23 23 1 0
BITMAP
3C0000
E60780
860580
860D80
861980
E63180
E62380
E66380
E7C7F8
818C0C
811804
811806
FE39E6
FC7FC6
F8FF0E
18F70E
11E61E
13EC06
13CC06
1F8806
1F0FFE
0F07FE
0007FE
ENDCHAR
STARTCHAR 00BE
ENCODING 190
SWIDTH 880 0
DWIDTH 22 0
BBX 21 23 1 0
BITMAP
7F0000
C18780
808580
80CD80
9CD980
F1F180
F1E380
F1E380
9CC7E0
808E20
C11C30
C11C30
FE3830
7C7230
78E010
18E018
11E018
13FE38
1FFE38
1F9E38
1F01F0
0F01F0
0001F0
ENDCHAR
STARTCHAR 00BF
ENCODING 191
SWIDTH 600 0
DWIDTH 15 0
BBX 13 23 1 -3
BITMAP
0F00
0980
0980
0980
0F80
0980
0980
0980
1980
3180
6380
4780
C7F8
8F98
9F98
9F98
8F18
C038
E078
6078
7FF0
3FE0
3FE0
ENDCHAR
STARTCHAR 00C0
ENCODING 192
SWIDTH 600 0
DWIDTH 15 0
BBX 13 26 1 0
BITMAP
3E00
2300
2300
3180
3980
3980
19C0
10C0
10C0
10E0
30E0
2660
2660
2670
6670
4F30
4030
4038
C038
9F98
9F98
9F98
9898
F8F8
F8F8
F878
ENDCHAR
STARTCHAR 00C1
ENCODING 193
SWIDTH 600 0
DWIDTH 15 0
BBX 13 26 1 0
BITMAP
0F80
18C0
18C0
11C0
19C0
19C0
1980
10C0
10C0
10C0
30C0
2660
2660
2660
6670
4F30
4030
4038
C038
9F98
9F98
9F98
9898
F8F8
F8F8
F878
ENDCHAR
STARTCHAR 00C2
ENCODING 194
SWIDTH 600 0
DWIDTH 15 0
BBX 13 26 1 0
BITMAP
1F80
30C0
30C0
2660
39E0
39E0
39E0
10C0
10C0
10C0
30E0
2660
2660
2670
6670
4F30
4030
4038
C038
9F98
9F98
9F98
9898
F8F8
F8F8
F878
ENDCHAR
STARTCHAR 00C3
ENCODING 195
SWIDTH 600 0
DWIDTH 15 0
BBX 13 26 1 0
BITMAP
1FC0
3160
2160
28E0
39E0
39E0
39C0
10C0
10E0
10E0
30E0
2660
2670
2670
6670
4F30
4030
4038
C038
9F98
9F98
9F98
9898
F8F8
F8F8
F878
ENDCHAR
STARTCHAR 00C4
ENCODING 196
SWIDTH 600 0
DWIDTH 15 0
BBX 13 26 1 0
BITMAP
3FC0
2660
2660
2660
39E0
39E0
39E0
10C0
10C0
10C0
30E0
2660
2660
2670
6670
4F30
4030
4038
C038
9F98
9F98
9F98
9898
F8F8
F8F8
F878
ENDCHAR
STARTCHAR 00C5
ENCODING 197
SWIDTH 600 0
DWIDTH 15 0
BBX 13 26 1 0
BITMAP
1F80
30C0
30C0
2660
30E0
39E0
39E0
10C0
10C0
10E0
30E0
2660
2660
2670
6670
4F30
4030
4038
C038
9F98
9F98
9F98
9898
F8F8
F8F8
F878
ENDCHAR
STARTCHAR 00C6
ENCODING 198
SWIDTH 680 0
DWIDTH 17 0
BBX 15 23 1 0
BITMAP
0FFE
0806
0806
1806
107E
107E
107E
3060
2670
2618
2618
6618
4E78
4078
4078
C060
9E7E
9E06
9E06
9A06
FBFE
FBFE
F9FE
ENDCHAR
STARTCHAR 00C7
ENCODING 199
SWIDTH 600 0
DWIDTH 15 0
BBX 13 27 1 -4
BITMAP
1FC0
3060
2030
6030
4718
CF98
9FF8
9EF8
9C78
9800
9800
9800
9800
98F0
CC98
CD98
C718
6038
6038
3078
3CF0
1CF0
1CE0
09C0
0FC0
0FC0
0780
ENDCHAR
STARTCHAR 00C8
ENCODING 200
SWIDTH 600 0
DWIDTH 15 0
BBX 13 26 1 0
BITMAP
1F00
1180
1180
F8F0
8018
8018
8018
9FF8
9FF8
9FF8
9800
9FC0
8060
8060
8060
9FE0
9FE0
9FE0
9800
9FF0
8018
8018
8018
FFF8
FFF8
FFF8
ENDCHAR
STARTCHAR 00C9
ENCODING 201
SWIDTH 600 0
DWIDTH 15 0
BBX 13 26 1 0
BITMAP
07C0
0C60
0C60
F8F0
8018
8018
8018
9FF8
9FF8
9FF8
9800
9FC0
8060
8060
8060
9FE0
9FE0
9FE0
9800
9FF0
8018
8018
8018
FFF8
FFF8
FFF8
ENDCHAR
STARTCHAR 00CA
ENCODING 202
SWIDTH 600 0
DWIDTH 15 0
BBX 13 26 1 0
BITMAP
0F80
18C0
18C0
F270
8018
8018
8018
9FF8
9FF8
9FF8
9800
9FC0
8060
8060
8060
9FE0
9FE0
9FE0
9800
9FF0
8018
8018
8018
FFF8
FFF8
FFF8
ENDCHAR
STARTCHAR 00CB
ENCODING 203
SWIDTH 600 0
DWIDTH 15 0
BBX 13 26 1 0
BITMAP
3FE0
2620
2630
E630
8018
8018
8018
9FF8
9FF8
9FF8
9800
9FC0
8060
8060
8060
9FE0
9FE0
9FE0
9800
9FF0
8018
8018
8018
FFF8
FFF8
FFF8
ENDCHAR
STARTCHAR 00CC
ENCODING 204
SWIDTH 440 0
DWIDTH 11 0
BBX 9 26 1 0
BITMAP
F800
8C00
8C00
C700
8180
8180
8180
E780
E780
E780
2600
2600
2600
2600
2600
2600
2600
2600
2600
E700
8180
8180
8180
FF80
FF80
FF80
ENDCHAR
STARTCHAR 00CD
ENCODING 205
SWIDTH 440 0
DWIDTH 11 0
BBX 9 26 1 0
BITMAP
1F00
3180
3180
E380
8180
8180
8180
E780
E780
E780
2600
2600
2600
2600
2600
2600
2600
2600
2600
E700
8180
8180
8180
FF80
FF80
FF80
ENDCHAR
STARTCHAR 00CE
ENCODING 206
SWIDTH 440 0
DWIDTH 11 0
BBX 9 26 1 0
BITMAP
7E00
C300
C300
9980
8180
8180
8180
E780
E780
E780
2600
2600
2600
2600
2600
2600
2600
2600
2600
E700
8180
8180
8180
FF80
FF80
FF80
ENDCHAR
STARTCHAR 00CF
ENCODING 207
SWIDTH 440 0
DWIDTH 11 0
BBX 9 26 1 0
BITMAP
FF00
9980
9980
9980
8180
8180
8180
E780
E780
E780
2600
2600
2600
2600
2600
2600
2600
2600
2600
E700
8180
8180
8180
FF80
FF80
FF80
ENDCHAR
STARTCHAR 00D0
ENCODING 208
SWIDTH 600 0
DWIDTH 15 0
BBX 15 23 -1 0
BITMAP
3FE0
2030
2018
2018
278C
27CC
27E6
27E6
E7E6
C066
C066
C066
E7E6
67E6
67CE
27CE
278E
201E
201C
203C
3FF8
3FF8
3FF0
ENDCHAR
STARTCHAR 00D1
ENCODING 209
SWIDTH 600 0
DWIDTH 15 0
BBX 13 26 1 0
BITMAP
0FC0
1960
1160
F4F8
9F98
8F98
8F98
8F98
8798
9398
9398
9398
9998
9998
9998
9C98
9C98
9E18
9E18
9B18
9B18
9918
9998
F8F8
F8F8
F878
ENDCHAR
STARTCHAR 00D2
ENCODING 210
SWIDTH 600 0
DWIDTH 15 0
BBX 13 26 1 0
BITMAP
3E00
2300
2380
3180
30C0
2040
6060
4630
CF30
9F98
9F98
9F98
9F98
9F98
9F98
9F98
9F98
CF38
CF38
C638
6078
6070
30F0
3FE0
1FE0
0FC0
ENDCHAR
STARTCHAR 00D3
ENCODING 211
SWIDTH 600 0
DWIDTH 15 0
BBX 13 26 1 0
BITMAP
07C0
0C60
0C60
18E0
30E0
2060
6060
4630
CF30
9F98
9F98
9F98
9F98
9F98
9F98
9F98
9F98
CF38
CF38
C638
6078
6070
30F0
3FE0
1FE0
0FC0
ENDCHAR
STARTCHAR 00D4
ENCODING 212
SWIDTH 600 0
DWIDTH 15 0
BBX 13 26 1 0
BITMAP
1F80
30C0
30C0
2660
30E0
2060
6060
4630
CF30
9F98
9F98
9F98
9F98
9F98
9F98
9F98
9F98
CF38
CF38
C638
6078
6070
30F0
3FE0
1FE0
0FC0
ENDCHAR
STARTCHAR 00D5
ENCODING 213
SWIDTH 600 0
DWIDTH 15 0
BBX 13 26 1 0
BITMAP
0FC0
1960
1160
14E0
30E0
2060
6060
4630
CF30
9F98
9F98
9F98
9F98
9F98
9F98
9F98
9F98
CF38
CF38
C638
6078
6070
30F0
3FE0
1FE0
0FC0
ENDCHAR
STARTCHAR 00D6
ENCODING 214
SWIDTH 600 0
DWIDTH 15 0
BBX 13 26 1 0
BITMAP
3FC0
2660
2660
2660
30E0
2060
6060
4630
CF30
9F98
9F98
9F98
9F98
9F98
9F98
9F98
9F98
CF38
CF38
C638
6078
6070
30F0
3FE0
1FE0
0FC0
ENDCHAR
STARTCHAR 00D7
ENCODING 215
SWIDTH 560 0
DWIDTH 14 0
BBX 12 14 1 4
BITMAP
F1E0
9930
9B30
CE70
E4F0
71F0
71E0
64C0
CE60
9F30
9F30
FDF0
FDF0
F8F0
ENDCHAR
STARTCHAR 00D8
ENCODING 216
SWIDTH 600 0
DWIDTH 15 0
BBX 13 23 1 0
BITMAP
1F80
30F0
2058
6058
4618
CF38
9E18
9E18
9C18
9898
9198
9198
8398
8798
CF38
CF38
8638
A078
A070
F0F0
FFE0
FFE0
1FC0
ENDCHAR
STARTCHAR 00D9
ENCODING 217
SWIDTH 600 0
DWIDTH 15 0
BBX 13 26 1 0
BITMAP
3E00
2300
2300
F1F0
9F98
9F98
9F98
9F98
9F98
9F98
9F98
9F98
9F98
9F98
9F98
9F98
9F98
9F98
9F98
CF38
C038
C038
6070
7FF0
3FF0
1FE0
ENDCHAR
STARTCHAR 00DA
ENCODING 218
SWIDTH 600 0
DWIDTH 15 0
BBX 13 26 1 0
BITMAP
07C0
0C60
0C60
F8F0
9F98
9F98
9F98
9F98
9F98
9F98
9F98
9F98
9F98
9F98
9F98
9F98
9F98
9F98
9F98
CF38
C038
C038
6070
7FF0
3FF0
1FE0
ENDCHAR
STARTCHAR 00DB
ENCODING 219
SWIDTH 600 0
DWIDTH 15 0
BBX 13 26 1 0
BITMAP
1F80
3180
31C0
E470
9F98
9F98
9F98
9F98
9F98
9F98
9F98
9F98
9F98
9F98
9F98
9F98
9F98
9F98
9F98
CF38
C038
C038
6070
7FF0
3FF0
1FE0
ENDCHAR
STARTCHAR 00DC
ENCODING 220
SWIDTH 600 0
DWIDTH 15 0
BBX 13 26 1 0
BITMAP
3FC0
2660
2660
E670
9F98
9F98
9F98
9F98
9F98
9F98
9F98
9F98
9F98
9F98
9F98
9F98
9F98
9F98
9F98
CF38
C038
C038
6070
7FF0
3FF0
1FE0
ENDCHAR
STARTCHAR 00DD
ENCODING 221
SWIDTH 600 0
DWIDTH 15 0
BBX 13 26 1 0
BITMAP
0FC0
1840
1840
F1F0
9F98
9F98
9F98
CF38
CF38
E678
6670
6670
70E0
30E0
30E0
19C0
19C0
09C0
0980
0980
0980
0980
0980
0F80
0F80
0780
ENDCHAR
STARTCHAR 00DE
ENCODING 222
SWIDTH 600 0
DWIDTH 15 0
BBX 13 23 1 0
BITMAP
F000
9800
9800
9800
9FC0
8060
8030
8030
9F18
9F98
9F98
9F98
9F98
9F18
8038
8038
8078
9FF8
9FF0
9FE0
F800
F800
F800
ENDCHAR
STARTCHAR 00DF
ENCODING 223
SWIDTH 560 0
DWIDTH 14 0
BBX 12 23 1 0
BITMAP
3F00
6180
40C0
C0C0
8C60
9E60
9E60
9E60
9C60
98E0
9E60
9E60
9F30
9F30
9F30
9F30
9F30
9030
9030
9870
FFF0
FFF0
FFE0
ENDCHAR
STARTCHAR 00E0
ENCODING 224
SWIDTH 600 0
DWIDTH 15 0
BBX 13 22 1 0
BITMAP
3E00
2300
2300
3180
3880
38C0
3FF0
6030
4018
7F98
7F98
6018
C018
9F98
9F98
9F98
8018
8018
C018
FFF8
7FF8
7FF8
ENDCHAR
STARTCHAR 00E1
ENCODING 225
SWIDTH 600 0
DWIDTH 15 0
BBX 13 22 1 0
BITMAP
07C0
0460
0C60
18E0
11E0
1FE0
3FF0
6030
4018
7F98
7F98
6018
C018
9F98
9F98
9F98
8018
8018
C018
FFF8
7FF8
7FF8
ENDCHAR
STARTCHAR 00E2
ENCODING 226
SWIDTH 600 0
DWIDTH 15 0
BBX 13 22 1 0
BITMAP
0700
0580
0DC0
18C0
1260
1FE0
3FF0
6030
4018
7F98
7F98
6018
C018
9F98
9F98
9F98
8018
8018
C018
FFF8
7FF8
7FF8
ENDCHAR
STARTCHAR 00E3
ENCODING 227
SWIDTH 600 0
DWIDTH 15 0
BBX 13 20 1 0
BITMAP
0FC0
1960
14E0
1FE0
3FF0
6030
4018
7F98
7F98
6018
C018
9F98
9F98
9F98
8018
8018
C018
FFF8
7FF8
7FF8
ENDCHAR
STARTCHAR 00E4
ENCODING 228
SWIDTH 600 0
DWIDTH 15 0
BBX 13 20 1 0
BITMAP
3FC0
2660
2660
2660
3FF0
6030
4018
7F98
7F98
6018
C018
9F98
9F98
9F98
8018
8018
C018
FFF8
7FF8
7FF8
ENDCHAR
STARTCHAR 00E5
ENCODING 229
SWIDTH 600 0
DWIDTH 15 0
BBX 13 22 1 0
BITMAP
1F80
10C0
30C0
2660
30E0
3FE0
3FF0
6030
4018
7F98
7F98
6018
C018
9F98
9F98
9F98
8018
8018
C018
FFF8
7FF8
7FF8
ENDCHAR
STARTCHAR 00E6
ENCODING 230
SWIDTH 840 0
DWIDTH 21 0
BBX 20 16 1 0
BITMAP
3FFF80
604180
4000C0
7F1E20
7F1E20
600030
C000F0
9F3FF0
9F3FF0
9F1FE0
8000E0
8000E0
C001E0
FFFFE0
7FFFE0
7FFF80
ENDCHAR
STARTCHAR 00E7
ENCODING 231
SWIDTH 600 0
DWIDTH 15 0
BBX 13 20 1 -4
BITMAP
3FC0
6060
C030
8F90
8F98
9FF8
9FF8
9FF8
9FF8
8F98
C038
C038
E078
7CF0
3CF0
3CE0
09C0
0FC0
0FC0
0780
ENDCHAR
STARTCHAR 00E8
ENCODING 232
SWIDTH 600 0
DWIDTH 15 0
BBX 13 22 1 0
BITMAP
3E00
2300
2380
3180
38C0
3FC0
3FC0
6060
C030
8F98
8F98
8018
8038
9FF8
9FF8
8FF0
C030
C030
E070
7FF0
3FF0
3FE0
ENDCHAR
STARTCHAR 00E9
ENCODING 233
SWIDTH 600 0
DWIDTH 15 0
BBX 13 22 1 0
BITMAP
07C0
0460
0C60
18E0
11E0
11E0
3FC0
6060
C030
8F98
8F98
8018
8038
9FF8
9FF8
8FF0
C030
C030
E070
7FF0
3FF0
3FE0
ENDCHAR
STARTCHAR 00EA
ENCODING 234
SWIDTH 600 0
DWIDTH 15 0
BBX 13 22 1 0
BITMAP
0F00
0B00
1B80
31C0
2440
3FE0
3FE0
6060
C030
8F98
8F98
8018
8038
9FF8
9FF8
8FF0
C030
C030
E070
7FF0
3FF0
3FE0
ENDCHAR
STARTCHAR 00EB
ENCODING 235
SWIDTH 600 0
DWIDTH 15 0
BBX 13 20 1 0
BITMAP
3FC0
2660
2660
2660
3FE0
6060
C030
8F98
8F98
8018
8038
9FF8
9FF8
8FF0
C030
C030
E070
7FF0
3FF0
3FE0
ENDCHAR
STARTCHAR 00EC
ENCODING 236
SWIDTH 400 0
DWIDTH 10 0
BBX 11 22 -1 0
BITMAP
FC00
C600
C600
E300
7180
3F80
3F80
1180
1180
1980
1980
1980
0980
0980
0980
39C0
2060
2060
2060
3FE0
3FE0
3FE0
ENDCHAR
STARTCHAR 00ED
ENCODING 237
SWIDTH 400 0
DWIDTH 10 0
BBX 9 22 1 0
BITMAP
1F00
1180
3180
6380
4780
4780
7F00
4600
4600
6600
6600
6600
2600
2600
2600
E700
8180
8180
8180
FF80
FF80
FF80
ENDCHAR
STARTCHAR 00EE
ENCODING 238
SWIDTH 400 0
DWIDTH 10 0
BBX 9 22 1 0
BITMAP
3800
2C00
6C00
C600
9300
FF00
FF00
C700
4600
6600
6600
6600
2600
2600
2600
E700
8180
8180
8180
FF80
FF80
FF80
ENDCHAR
STARTCHAR 00EF
ENCODING 239
SWIDTH 400 0
DWIDTH 10 0
BBX 9 20 1 0
BITMAP
FF00
9980
9980
9980
FF80
C780
4600
6600
6600
6600
2600
2600
2600
E700
8180
8180
8180
FF80
FF80
FF80
ENDCHAR
STARTCHAR 00F0
ENCODING 240
SWIDTH 640 0
DWIDTH 16 0
BBX 14 23 1 0
BITMAP
3F7C
21CC
209C
209C
3C7C
3238
2718
2718
3F9C
600C
400C
C00C
8F8C
9FCC
9FCC
9FCC
8F8C
C01C
C01C
E03C
7FF8
3FF8
3FF0
ENDCHAR
STARTCHAR 00F1
ENCODING 241
SWIDTH 560 0
DWIDTH 14 0
BBX 12 20 1 0
BITMAP
1F80
32C0
29C0
3FC0
FFC0
80C0
8060
9E30
9E30
9F30
9F30
9930
9930
9930
9930
9930
9930
F9F0
F9F0
F8F0
ENDCHAR
STARTCHAR 00F2
ENCODING 242
SWIDTH 600 0
DWIDTH 15 0
BBX 13 22 1 0
BITMAP
3E00
2300
2300
3180
38C0
38C0
3FE0
6060
C030
8F18
8F18
9F98
9F98
9F98
9F98
8F18
C038
C038
E078
7FF0
3FF0
3FE0
ENDCHAR
STARTCHAR 00F3
ENCODING 243
SWIDTH 600 0
DWIDTH 15 0
BBX 13 22 1 0
BITMAP
07C0
0460
0C60
18E0
11E0
11E0
3FC0
6060
C030
8F10
8F18
9F98
9F98
9F98
9F98
8F18
C038
C038
E078
7FF0
3FF0
3FE0
ENDCHAR
STARTCHAR 00F4
ENCODING 244
SWIDTH 600 0
DWIDTH 15 0
BBX 13 22 1 0
BITMAP
0F00
0B00
1B80
3180
2440
3FC0
3FE0
6070
C030
8F18
8F18
9F98
9F98
9F98
9F98
8F18
C038
C038
E078
7FF0
3FF0
3FE0
ENDCHAR
STARTCHAR 00F5
ENCODING 245
SWIDTH 600 0
DWIDTH 15 0
BBX 13 20 1 0
BITMAP
1FC0
3240
28E0
3FE0
3FF0
6070
C030
8F18
8F18
9F98
9F98
9F98
9F98
8F18
C038
C038
E078
7FF0
3FF0
3FE0
ENDCHAR
STARTCHAR 00F6
ENCODING 246
SWIDTH 600 0
DWIDTH 15 0
BBX 13 20 1 0
BITMAP
3FC0
2660
2660
2660
3FE0
6060
C030
8F18
8F18
9F98
9F98
9F98
9F98
8F18
C038
C038
E078
7FF0
3FF0
3FE0
ENDCHAR
STARTCHAR 00F7
ENCODING 247
SWIDTH 520 0
DWIDTH 13 0
BBX 11 18 1 1
BITMAP
3F00
2300
2300
2300
2300
FFC0
8060
8060
8060
FFE0
E3E0
E3E0
2300
2300
2300
3F00
1F00
1F00
ENDCHAR
STARTCHAR 00F8
ENCODING 248
SWIDTH 600 0
DWIDTH 15 0
BBX 13 16 1 0
BITMAP
3FF8
6058
C038
8E18
8E18
9C98
9998
9398
9398
8718
C038
8038
A078
FFF0
FFF0
FFE0
ENDCHAR
STARTCHAR 00F9
ENCODING 249
SWIDTH 600 0
DWIDTH 15 0
BBX 13 22 1 0
BITMAP
3E00
2300
2300
3180
3880
38C0
FFF0
9F98
9F98
9F98
9F98
9F98
9F98
9F98
9F98
8F18
C018
C018
E098
7FF8
3FF8
3FF8
ENDCHAR
STARTCHAR 00FA
ENCODING 250
SWIDTH 600 0
DWIDTH 15 0
BBX 13 22 1 0
BITMAP
07C0
0460
0C60
18E0
11E0
11E0
FFF0
9F98
9F98
9F98
9F98
9F98
9F98
9F98
9F98
8F18
C018
C018
E098
7FF8
3FF8
3FF8
ENDCHAR
STARTCHAR 00FB
ENCODING 251
SWIDTH 600 0
DWIDTH 15 0
BBX 13 22 1 0
BITMAP
0F00
0B00
1B80
3180
2440
3FC0
FFF0
9F98
9F98
9F98
9F98
9F98
9F98
9F98
9F98
8F18
C018
C018
E098
7FF8
3FF8
3FF8
ENDCHAR
STARTCHAR 00FC
ENCODING 252
SWIDTH 600 0
DWIDTH 15 0
BBX 13 20 1 0
BITMAP
3FC0
2660
2660
2660
FFF0
9F98
9F98
9F98
9F98
9F98
9F98
9F98
9F98
8F18
C018
C018
E098
7FF8
3FF8
3FF8
ENDCHAR
STARTCHAR 00FD
ENCODING 253
SWIDTH 520 0
DWIDTH 13 0
BBX 11 25 1 -3
BITMAP
0F80
08C0
18C0
31C0
23C0
23C0
FFC0
9E60
9E60
CCE0
CCE0
CCE0
E1E0
61C0
61C0
3380
3380
3380
2700
6700
4F00
7E00
7E00
7C00
7C00
ENDCHAR
STARTCHAR 00FE
ENCODING 254
SWIDTH 600 0
DWIDTH 15 0
BBX 13 26 1 -3
BITMAP
F000
9000
9800
9800
9800
9800
9800
9FC0
9060
8030
8F10
8F18
9F98
9F98
9F18
9F18
8038
8078
9FF8
9FF0
9FE0
9800
9800
F800
F800
F800
ENDCHAR
STARTCHAR 00FF
ENCODING 255
SWIDTH 520 0
DWIDTH 13 0
BBX 11 23 1 -3
BITMAP
7F80
4CC0
4CC0
4CC0
FFC0
9E60
9E60
CCE0
CCE0
CCE0
E1E0
61C0
61C0
3380
3380
3380
2700
6700
4F00
7E00
7E00
7C00
7C00
ENDCHAR
STARTCHAR 0100
ENCODING 256
SWIDTH 600 0
DWIDTH 15 0
BBX 13 26 1 0
BITMAP
3FC0
2060
2060
3FE0
39E0
19E0
1980
10C0
10C0
10C0
30C0
2660
2660
2660
6670
4F30
4030
4038
C038
9F98
9F98
9F98
9898
F8F8
F8F8
F878
ENDCHAR
STARTCHAR 0101
ENCODING 257
SWIDTH 600 0
DWIDTH 15 0
BBX 13 19 1 0
BITMAP
1FC0
1060
1060
3FF0
6038
4018
7F98
7F98
6018
C018
9F98
9F98
9F98
8018
8018
C018
FFF8
7FF8
7FF8
ENDCHAR
STARTCHAR 0102
ENCODING 258
SWIDTH 600 0
DWIDTH 15 0
BBX 13 26 1 0
BITMAP
3FC0
2660
2660
30E0
39E0
39E0
19C0
10C0
10C0
10C0
30C0
2660
2660
2660
6670
4F30
4030
4030
C038
9F98
9F98
9F98
9898
F8F8
F8F8
F878
ENDCHAR
STARTCHAR 0103
ENCODING 259
SWIDTH 600 0
DWIDTH 15 0
BBX 13 22 1 0
BITMAP
1FC0
1260
1260
1260
18E0
1FE0
3FF0
6030
4018
7F98
7F98
6018
C018
9F98
9F98
9F98
8018
8018
C018
FFF8
7FF8
7FF8
ENDCHAR
STARTCHAR 0104
ENCODING 260
SWIDTH 600 0
DWIDTH 15 0
BBX 13 27 1 -4
BITMAP
0F00
0900
0980
1980
1080
10C0
10C0
30C0
2660
2660
2660
6670
4F30
4030
4030
C038
9F98
9F98
9F98
9998
F938
F918
F918
0118
01F8
01F8
00F8
ENDCHAR
STARTCHAR 0105
ENCODING 261
SWIDTH 600 0
DWIDTH 15 0
BBX 13 20 1 -4
BITMAP
3FF0
6030
4018
7F98
7F98
6018
C018
9F98
9F98
9F98
8018
8018
C018
FF38
7F18
7F18
0118
01F8
01F8
00F8
ENDCHAR
STARTCHAR 0106
ENCODING 262
SWIDTH 600 0
DWIDTH 15 0
BBX 13 26 1 0
BITMAP
03E0
0630
0630
1C70
3070
2030
6038
4718
CF98
9FF8
9EF8
9C78
9800
9800
9800
9800
98F0
CC98
CD98
C718
6038
6038
3078
3FF0
1FF0
0FE0
ENDCHAR
STARTCHAR 0107
ENCODING 263
SWIDTH 600 0
DWIDTH 15 0
BBX 13 22 1 0
BITMAP
07C0
0460
0C60
18E0
11E0
11E0
3FC0
6060
C030
8F90
8F98
9FF8
9FF8
9FF8
9FF8
8F98
C038
C038
E078
7FF0
3FF0
3FE0
ENDCHAR
STARTCHAR 010A
ENCODING 266
SWIDTH 600 0
DWIDTH 15 0
BBX 13 26 1 0
BITMAP
0F80
0980
09C0
19E0
3060
2030
6038
4718
CF98
9FF8
9EF8
9C78
9800
9800
9800
9800
98F0
CC98
CD98
C718
6038
6038
3078
3FF0
1FF0
0FE0
ENDCHAR
STARTCHAR 010B
ENCODING 267
SWIDTH 600 0
DWIDTH 15 0
BBX 13 20 1 0
BITMAP
0F00
0980
0980
0980
3FC0
6060
C030
8F90
8F98
9FF8
9FF8
9FF8
9FF8
8F98
C038
C038
E078
7FF0
3FF0
3FE0
ENDCHAR
STARTCHAR 010C
ENCODING 268
SWIDTH 600 0
DWIDTH 15 0
BBX 13 26 1 0
BITMAP
1FC0
1260
1260
18E0
3060
2030
6038
4718
CF98
9FF8
9EF8
9C78
9800
9800
9800
9800
98F0
CC98
CD98
C718
6038
6038
3078
3FF0
1FF0
0FE0
ENDCHAR
STARTCHAR 010D
ENCODING 269
SWIDTH 600 0
DWIDTH 15 0
BBX 13 22 1 0
BITMAP
1FC0
1260
1260
18E0
1DE0
1DE0
3FC0
6060
C030
8F90
8F98
9FF8
9FF8
9FF8
9FF8
8F98
C038
C038
E078
7FF0
3FF0
3FE0
ENDCHAR
STARTCHAR 010E
ENCODING 270
SWIDTH 600 0
DWIDTH 15 0
BBX 13 26 1 0
BITMAP
3F80
24C0
24C0
F1C0
80C0
8060
8060
9E30
9F30
9F98
9F98
9F98
9F98
9F98
9F98
9F98
9F98
9F38
9F38
9E38
8078
8070
80F0
FFE0
FFE0
FFC0
ENDCHAR
STARTCHAR 010F
ENCODING 271
SWIDTH 760 0
DWIDTH 19 0
BBX 17 23 1 0
BITMAP
00FF80
009180
009180
009180
009180
009980
009380
3F9380
609F80
C01F00
8E1F00
8E1800
9F9800
9F9800
9F9800
9F9800
8F9800
C01800
C01800
E01800
7FF800
3FF800
3FF800
ENDCHAR
STARTCHAR 0110
ENCODING 272
SWIDTH 600 0
DWIDTH 15 0
BBX 15 23 -1 0
BITMAP
3FE0
2030
2018
2018
278C
27CC
27E6
27E6
E7E6
C066
C066
C066
E7E6
67E6
67CE
27CE
278E
201E
201C
203C
3FF8
3FF8
3FF0
ENDCHAR
STARTCHAR 0111
ENCODING 273
SWIDTH 600 0
DWIDTH 15 0
BBX 14 23 1 0
BITMAP
00F0
0098
0098
0098
3F9C
200C
3F9C
3F9C
609C
C018
8E18
8E18
9F98
9F98
9F98
9F98
8F98
C018
C018
E018
7FF8
3FF8
3FF8
ENDCHAR
STARTCHAR 0112
ENCODING 274
SWIDTH 600 0
DWIDTH 15 0
BBX 13 26 1 0
BITMAP
1FC0
1060
1060
FFF0
8018
8018
8018
9FF8
9FF8
9FF8
9800
9FC0
8060
8060
8060
9FE0
9FE0
9FE0
9800
9FF0
8018
8018
8018
FFF8
FFF8
FFF8
ENDCHAR
STARTCHAR 0113
ENCODING 275
SWIDTH 600 0
DWIDTH 15 0
BBX 13 19 1 0
BITMAP
3FC0
2060
3FE0
3FE0
6060
C030
8F98
8F98
8018
8038
9FF8
9FF8
8FF0
C030
C030
E070
7FF0
3FF0
3FE0
ENDCHAR
STARTCHAR 0116
ENCODING 278
SWIDTH 600 0
DWIDTH 15 0
BBX 13 26 1 0
BITMAP
0F80
0980
0980
F9F0
8018
8018
8018
9FF8
9FF8
9FF8
9800
9FC0
8060
8060
8060
9FE0
9FE0
9FE0
9800
9FF0
8018
8018
8018
FFF8
FFF8
FFF8
ENDCHAR
STARTCHAR 0117
ENCODING 279
SWIDTH 600 0
DWIDTH 15 0
BBX 13 20 1 0
BITMAP
0F00
0980
0980
0980
3FC0
6060
C030
8F98
8F98
8018
8038
9FF8
9FF8
8FF0
C030
C030
E070
7FF0
3FF0
3FE0
ENDCHAR
STARTCHAR 0118
ENCODING 280
SWIDTH 600 0
DWIDTH 15 0
BBX 13 27 1 -4
BITMAP
FFF0
8018
8018
8018
9FF8
9FF8
9FF8
9800
9FC0
8060
8060
8060
9FE0
9FE0
9FE0
9800
9FF0
8018
8018
8018
FF38
FF18
FF18
0118
01F8
01F8
00F8
ENDCHAR
STARTCHAR 0119
ENCODING 281
SWIDTH 600 0
DWIDTH 15 0
BBX 13 20 1 -4
BITMAP
3FC0
6060
C030
8F98
8F98
8018
8038
9FF8
9FF8
8FF0
C030
C030
E070
7E70
3E30
3E30
0230
03F0
03F0
01F0
ENDCHAR
STARTCHAR 011A
ENCODING 282
SWIDTH 600 0
DWIDTH 15 0
BBX 13 26 1 0
BITMAP
1FC0
1260
1260
F8F0
8018
8018
8018
9FF8
9FF8
9FF8
9800
9FC0
8060
8060
8060
9FE0
9FE0
9FE0
9800
9FF0
8018
8018
8018
FFF8
FFF8
FFF8
ENDCHAR
STARTCHAR 011B
ENCODING 283
SWIDTH 600 0
DWIDTH 15 0
BBX 13 22 1 0
BITMAP
3FC0
2440
2460
31E0
3BE0
1BE0
3FC0
6060
C030
8F98
8F98
8018
8038
9FF8
9FF8
8FF0
C030
C030
E070
7FF0
3FF0
3FE0
ENDCHAR
STARTCHAR 011E
ENCODING 286
SWIDTH 600 0
DWIDTH 15 0
BBX 13 26 1 0
BITMAP
1FC0
1260
1260
18F0
3030
2018
6018
4798
CFF8
9FF8
9FF8
9FF0
9C18
9C18
9C18
9F98
9F98
CF98
CF98
C798
6018
6018
3018
3FF8
1FF8
0FF8
ENDCHAR
STARTCHAR 011F
ENCODING 287
SWIDTH 600 0
DWIDTH 15 0
BBX 13 25 1 -3
BITMAP
1FC0
1260
1260
1260
18E0
18E0
3FF8
6018
C018
8F98
8F98
9F98
8F18
C018
C018
E098
7F98
7F98
7F18
4038
4078
4078
7FF0
7FE0
7FE0
ENDCHAR
STARTCHAR 0120
ENCODING 288
SWIDTH 600 0
DWIDTH 15 0
BBX 13 26 1 0
BITMAP
0780
04C0
04C0
1CE0
3030
2018
6018
4798
CFF8
9FF8
9FF8
9FF0
9C18
9C18
9C18
9F98
9F98
CF98
CF98
C798
6018
6018
3018
3FF8
1FF8
0FF8
ENDCHAR
STARTCHAR 0121
ENCODING 289
SWIDTH 600 0
DWIDTH 15 0
BBX 13 23 1 -3
BITMAP
0F00
0980
0980
0980
3FF8
6018
C018
8F98
8F98
9F98
8F18
C018
C018
E098
7F98
7F98
7F18
4038
4078
4078
7FF0
7FE0
7FE0
ENDCHAR
STARTCHAR 0122
ENCODING 290
SWIDTH 600 0
DWIDTH 15 0
BBX 13 26 1 -3
BITMAP
1FE0
3030
6018
6018
4798
CFF8
9FF8
9FF8
9FF0
9C18
9C18
9C18
9F98
9F98
CF98
CF98
C798
E018
6018
3018
3CF8
19F8
19F8
0FC0
0F80
0780
ENDCHAR
STARTCHAR 0123
ENCODING 291
SWIDTH 600 0
DWIDTH 15 0
BBX 13 26 1 -3
BITMAP
0780
0CC0
09C0
09C0
08C0
08C0
08C0
3FF8
6018
C018
8F98
8F98
9F98
8F18
C018
C018
E098
7F98
7F98
7F18
4038
4078
4078
7FF0
7FE0
7FE0
ENDCHAR
STARTCHAR 0126
ENCODING 294
SWIDTH 600 0
DWIDTH 15 0
BBX 16 23 -1 0
BITMAP
3C3C
2626
2626
2626
E7E7
C003
E7E7
67E7
67E7
2006
2006
2006
27E6
27E6
27E6
2626
2626
2626
2626
2626
3E3E
3E3E
3E1E
ENDCHAR
STARTCHAR 0127
ENCODING 295
SWIDTH 560 0
DWIDTH 14 0
BBX 14 23 -1 0
BITMAP
3C00
2600
2600
2600
E7E0
C030
E7F0
67F0
6430
2018
238C
238C
27CC
27CC
274C
264C
264C
264C
264C
264C
3E7C
3E7C
3E3C
ENDCHAR
STARTCHAR 0128
ENCODING 296
SWIDTH 440 0
DWIDTH 11 0
BBX 9 26 1 0
BITMAP
7F00
C580
8580
A380
8180
8180
8180
E780
E780
E780
2600
2600
2600
2600
2600
2600
2600
2600
2600
E700
8180
8180
8180
FF80
FF80
FF80
ENDCHAR
STARTCHAR 0129
ENCODING 297
SWIDTH 400 0
DWIDTH 10 0
BBX 9 20 1 0
BITMAP
7E00
CB00
A700
FF00
FF00
C600
4600
6600
6600
6600
2600
2600
2600
E700
8180
8180
8180
FF80
FF80
FF80
ENDCHAR
STARTCHAR 012A
ENCODING 298
SWIDTH 440 0
DWIDTH 11 0
BBX 9 26 1 0
BITMAP
FF00
8180
8180
FF80
8180
8180
8180
E780
E780
E780
2600
2600
2600
2600
2600
2600
2600
2600
2600
E700
8180
8180
8180
FF80
FF80
FF80
ENDCHAR
STARTCHAR 012B
ENCODING 299
SWIDTH 400 0
DWIDTH 10 0
BBX 9 19 1 0
BITMAP
FE00
8300
FF00
FF00
C700
4600
6600
6600
6600
2600
2600
2600
E700
8180
8180
8180
FF80
FF80
FF80
ENDCHAR
STARTCHAR 012C
ENCODING 300
SWIDTH 440 0
DWIDTH 11 0
BBX 9 26 1 0
BITMAP
FF00
9980
9980
C380
8180
8180
8180
E780
E780
E780
2600
2600
2600
2600
2600
2600
2600
2600
2600
E700
8180
8180
8180
FF80
FF80
FF80
ENDCHAR
STARTCHAR 012D
ENCODING 301
SWIDTH 400 0
DWIDTH 10 0
BBX 9 22 1 0
BITMAP
FE00
9300
9300
9300
C700
FF00
FF00
4600
4600
6600
6600
6600
2600
2600
2600
E700
8180
8180
8180
FF80
FF80
FF80
ENDCHAR
STARTCHAR 012E
ENCODING 302
SWIDTH 440 0
DWIDTH 11 0
BBX 9 26 1 -3
BITMAP
FF00
8180
8180
8180
E780
E780
E780
2600
2600
2600
2600
2600
2600
2600
2600
2600
E700
8180
8180
8180
E780
E380
6380
7F00
3F00
3F00
ENDCHAR
STARTCHAR 012F
ENCODING 303
SWIDTH 400 0
DWIDTH 10 0
BBX 9 24 1 -4
BITMAP
3C00
2600
2600
2600
7E00
4600
4600
6600
6600
6600
2600
2600
2600
E700
8180
8180
8180
E780
E380
E380
2300
3F00
3F00
1F00
ENDCHAR
STARTCHAR 0130
ENCODING 304
SWIDTH 440 0
DWIDTH 11 0
BBX 9 26 1 0
BITMAP
3C00
2600
2600
E700
8180
8180
8180
E780
E780
E780
2600
2600
2600
2600
2600
2600
2600
2600
2600
E700
8180
8180
8180
FF80
FF80
FF80
ENDCHAR
STARTCHAR 0131
ENCODING 305
SWIDTH 400 0
DWIDTH 10 0
BBX 9 16 1 0
BITMAP
7C00
4600
4600
6600
6600
6600
2600
2600
2600
E700
8180
8180
8180
FF80
FF80
FF80
ENDCHAR
STARTCHAR 0132
ENCODING 306
SWIDTH 680 0
DWIDTH 17 0
BBX 15 23 1 0
BITMAP
F03E
9826
9826
9826
9826
9826
9826
9826
9826
9826
9826
9826
9F26
99A6
99A6
99E6
98CE
9C0E
9C0E
9E1C
FFFC
FBFC
F9F8
ENDCHAR
STARTCHAR 0133
ENCODING 307
SWIDTH 480 0
DWIDTH 12 0
BBX 10 23 1 -3
BITMAP
7F80
4CC0
4CC0
4CC0
FFC0
88C0
88C0
CCC0
CCC0
CCC0
4CC0
4CC0
4CC0
4CC0
7CC0
7CC0
4CC0
40C0
61C0
7FC0
7FC0
3F80
1F80
ENDCHAR
STARTCHAR 0136
ENCODING 310
SWIDTH 600 0
DWIDTH 15 0
BBX 13 27 1 -4
BITMAP
F0F8
9998
9B98
9B18
9E38
9C78
9878
98F0
91E0
83C0
83C0
8380
9180
98C0
9C40
9C60
9E30
9F10
9F18
9F98
F9F8
F9F8
F9F8
1380
1F80
1F80
0F00
ENDCHAR
STARTCHAR 0137
ENCODING 311
SWIDTH 520 0
DWIDTH 13 0
BBX 11 27 1 -4
BITMAP
F000
9000
9800
9800
9800
9800
9800
9F80
9CC0
98C0
91C0
91C0
83C0
83C0
8380
9180
98C0
9C40
9C60
9E60
F3E0
F3E0
F3E0
2700
3F00
3F00
3E00
ENDCHAR
STARTCHAR 0139
ENCODING 313
SWIDTH 560 0
DWIDTH 14 0
BBX 13 26 1 0
BITMAP
3E00
6300
6300
C700
9F00
9F00
9E00
9800
9800
9800
9800
9800
9800
9800
9800
9800
9800
9800
9800
9FF0
8018
8018
8018
FFF8
FFF8
FFF8
ENDCHAR
STARTCHAR 013A
ENCODING 314
SWIDTH 400 0
DWIDTH 10 0
BBX 9 26 1 0
BITMAP
3E00
6300
6300
4700
4700
4700
4600
6600
6600
6600
2600
2600
2600
2600
2600
2600
2600
2600
2600
E700
8180
8180
8180
FF80
FF80
FF80
ENDCHAR
STARTCHAR 013B
ENCODING 315
SWIDTH 560 0
DWIDTH 14 0
BBX 13 27 1 -4
BITMAP
F000
9800
9800
9800
9800
9800
9800
9800
9800
9800
9800
9800
9800
9800
9800
9800
9FF0
8018
8018
8018
FCF8
FCF8
FCF8
09C0
0FC0
0FC0
0780
ENDCHAR
STARTCHAR 013C
ENCODING 316
SWIDTH 400 0
DWIDTH 10 0
BBX 9 27 1 -4
BITMAP
7C00
4600
4600
4600
6600
6600
6600
2600
2600
2600
2600
2600
2600
2600
2600
2600
E700
8180
8180
8180
E780
E780
E780
4E00
7E00
7E00
7C00
ENDCHAR
STARTCHAR 013D
ENCODING 317
SWIDTH 560 0
DWIDTH 14 0
BBX 13 23 1 0
BITMAP
FF80
98C0
98C0
98C0
98C0
9CC0
99C0
9FC0
9FC0
9F80
9F80
9800
9800
9800
9800
9800
9FF0
8018
8018
8018
FFF8
FFF8
FFF8
ENDCHAR
STARTCHAR 013E
ENCODING 318
SWIDTH 520 0
DWIDTH 13 0
BBX 11 23 1 0
BITMAP
7FC0
4460
4460
4460
6460
6660
64E0
24E0
27E0
27C0
27C0
2600
2600
2600
2600
2600
E700
8180
8180
8180
FF80
FF80
FF80
ENDCHAR
STARTCHAR 0141
ENCODING 321
SWIDTH 600 0
DWIDTH 15 0
BBX 16 23 -1 0
BITMAP
1E00
1300
1300
1300
1300
1380
12C0
12C0
10C0
31C0
23C0
E3C0
C380
C380
C300
D300
F3FF
7003
7003
1003
1FFF
1FFF
1FFF
ENDCHAR
STARTCHAR 0142
ENCODING 322
SWIDTH 440 0
DWIDTH 11 0
BBX 9 23 1 0
BITMAP
7C00
4600
4600
4600
6700
6580
6180
2180
2180
6380
4780
C780
8700
8700
8600
A600
E700
8180
8180
8180
FF80
FF80
FF80
ENDCHAR
STARTCHAR 0143
ENCODING 323
SWIDTH 600 0
DWIDTH 15 0
BBX 13 26 1 0
BITMAP
0FC0
1840
1840
F1F8
9F98
8F98
8F98
8F98
8798
9398
9398
9398
9998
9998
9998
9C98
9C98
9E18
9E18
9F18
9B18
9B18
9998
F8F8
F8F8
F878
ENDCHAR
STARTCHAR 0144
ENCODING 324
SWIDTH 560 0
DWIDTH 14 0
BBX 12 22 1 0
BITMAP
07C0
0460
0C60
18E0
11E0
11E0
FFC0
80C0
8060
9E30
9E30
9F30
9F30
9930
9930
9930
9930
9930
9930
F9F0
F9F0
F8F0
ENDCHAR
STARTCHAR 0145
ENCODING 325
SWIDTH 600 0
DWIDTH 15 0
BBX 13 27 1 -4
BITMAP
F0F8
9898
8898
8C98
8C98
8698
9398
9398
9398
9998
9998
9998
9C98
9C98
9E18
9E18
9F18
9F18
9F18
9F98
F9F8
F9F8
F9F8
1380
1F80
1F80
0F00
ENDCHAR
STARTCHAR 0146
ENCODING 326
SWIDTH 560 0
DWIDTH 14 0
BBX 12 20 1 -4
BITMAP
FF80
80C0
8060
9E20
9E30
9F30
9F30
9F30
9F30
9F30
9F30
9F30
9F30
F9F0
F9F0
F9F0
1380
1F80
1F80
0F00
ENDCHAR
STARTCHAR 0147
ENCODING 327
SWIDTH 600 0
DWIDTH 15 0
BBX 13 26 1 0
BITMAP
1FC0
1260
1260
F8F8
9F98
8F98
8F98
8F98
8798
9398
9398
9398
9998
9998
9998
9C98
9C98
9E18
9E18
9F18
9B18
9B18
9998
F8F8
F8F8
F878
ENDCHAR
STARTCHAR 0148
ENCODING 328
SWIDTH 560 0
DWIDTH 14 0
BBX 12 22 1 0
BITMAP
3F80
24C0
24C0
31C0
3BC0
3BC0
FF80
80C0
8060
9E20
9E30
9F30
9F30
9930
9930
9930
9930
9930
9930
F9F0
F9F0
F8F0
ENDCHAR
STARTCHAR 014A
ENCODING 330
SWIDTH 600 0
DWIDTH 15 0
BBX 13 25 1 -2
BITMAP
FFC0
8060
8030
8030
9F18
9F98
9F98
9F98
9F98
9F98
9F98
9F98
9F98
9F98
9F98
9F98
9F98
9F98
9F98
9F98
FC18
FC38
FC38
07F8
07F0
ENDCHAR
STARTCHAR 014B
ENCODING 331
SWIDTH 560 0
DWIDTH 14 0
BBX 12 18 1 -2
BITMAP
FF80
80C0
8060
9E20
9E30
9F30
9F30
9F30
9F30
9F30
9F30
9F30
9F30
F830
F870
F870
0FF0
0FE0
ENDCHAR
STARTCHAR 014C
ENCODING 332
SWIDTH 600 0
DWIDTH 15 0
BBX 13 26 1 0
BITMAP
3FC0
2060
2060
3FE0
30F0
2070
6070
4630
CF38
9F98
9F98
9F98
9F98
9F98
9F98
9F98
9F98
CF38
CF38
C638
6078
6070
30F0
3FE0
1FE0
0FC0
ENDCHAR
STARTCHAR 014D
ENCODING 333
SWIDTH 600 0
DWIDTH 15 0
BBX 13 19 1 0
BITMAP
3FC0
2060
3FE0
3FF0
6070
C030
8F18
8F18
9F98
9F98
9F98
9F98
8F18
C038
C038
E078
7FF0
3FF0
3FE0
ENDCHAR
STARTCHAR 0150
ENCODING 336
SWIDTH 600 0
DWIDTH 15 0
BBX 13 26 1 0
BITMAP
1FF0
3118
3118
2238
30F8
2078
6070
4630
CF30
9F98
9F98
9F98
9F98
9F98
9F98
9F98
9F98
CF38
CF38
C638
6078
6070
30F0
3FE0
1FE0
0FC0
ENDCHAR
STARTCHAR 0151
ENCODING 337
SWIDTH 600 0
DWIDTH 15 0
BBX 14 22 1 0
BITMAP
0FF8
088C
188C
311C
223C
3FFC
3FF8
6070
C038
8F18
8F18
9F98
9F98
9F98
9F98
8F18
C038
C038
E078
7FF0
3FF0
3FE0
ENDCHAR
STARTCHAR 0152
ENCODING 338
SWIDTH 800 0
DWIDTH 20 0
BBX 19 23 1 0
BITMAP
1FFFC0
3080C0
2000E0
6000E0
461FE0
CF1FE0
9F9FE0
9F9800
9F9F00
9F8300
9F8300
9F8300
9F9F00
9F9F00
CF1F00
CF1800
C61FC0
6000C0
6000C0
3080E0
3FFFE0
1FFFE0
0FFFE0
ENDCHAR
STARTCHAR 0153
ENCODING 339
SWIDTH 800 0
DWIDTH 20 0
BBX 19 16 1 0
BITMAP
3FFF00
608300
C00180
8E3CC0
8E3CC0
9E00E0
9E01E0
9E3FE0
9E3FE0
8E3F80
C00180
C00180
E08380
7FFF80
3FFF80
3FFF00
ENDCHAR
STARTCHAR 0154
ENCODING 340
SWIDTH 600 0
DWIDTH 15 0
BBX 13 26 1 0
BITMAP
0F80
18C0
18C0
F1E0
8060
8030
8038
9F18
9F98
9F98
9F98
9F98
9F18
8038
8038
8078
98F8
9C70
9C60
9E30
9F18
9B18
9B98
F9F8
F8F8
F878
ENDCHAR
STARTCHAR 0155
ENCODING 341
SWIDTH 520 0
DWIDTH 13 0
BBX 12 22 1 0
BITMAP
07C0
0460
0C60
18E0
11E0
11E0
FFC0
9060
8030
8F30
8F30
9FF0
9FF0
9CF0
9800
9800
9800
9800
9800
F800
F800
F800
ENDCHAR
STARTCHAR 0156
ENCODING 342
SWIDTH 600 0
DWIDTH 15 0
BBX 13 27 1 -4
BITMAP
FFC0
8060
8030
8030
9F18
9F98
9F98
9F98
9F98
9F18
8038
8038
8078
98F0
9C70
9C70
9E30
9F18
9F18
9F98
F9F8
F9F8
F9F8
1380
1F80
1F80
0F00
ENDCHAR
STARTCHAR 0157
ENCODING 343
SWIDTH 520 0
DWIDTH 13 0
BBX 14 20 -1 -4
BITMAP
3FF0
2418
200C
23CC
23CC
27FC
27FC
273C
2600
2600
2600
2600
2600
2600
E600
E600
CE00
FE00
7E00
7C00
ENDCHAR
STARTCHAR 0158
ENCODING 344
SWIDTH 600 0
DWIDTH 15 0
BBX 13 26 1 0
BITMAP
3F80
24C0
24C0
F1E0
8060
8030
8038
9F18
9F98
9F98
9F98
9F98
9F18
8038
8038
8078
98F8
9C70
9C60
9E30
9F38
9B18
9B98
F9F8
F8F8
F878
ENDCHAR
STARTCHAR 0159
ENCODING 345
SWIDTH 520 0
DWIDTH 13 0
BBX 12 22 1 0
BITMAP
3F80
24C0
24C0
31C0
3BC0
3BC0
FFC0
9060
8030
8F30
8F30
9FF0
9FF0
9CF0
9800
9800
9800
9800
9800
F800
F800
F800
ENDCHAR
STARTCHAR 015A
ENCODING 346
SWIDTH 600 0
DWIDTH 15 0
BBX 13 26 1 0
BITMAP
07C0
0C60
0C60
38F0
6070
4030
C038
8F18
9F98
9FF8
9FF8
8FF8
C060
E030
6038
7F18
FF98
9F98
9F98
8F18
C038
C038
E078
7FF0
3FF0
3FE0
ENDCHAR
STARTCHAR 015B
ENCODING 347
SWIDTH 520 0
DWIDTH 13 0
BBX 11 22 1 0
BITMAP
07C0
0460
0C60
18E0
11E0
11E0
7FC0
C0E0
8060
9FE0
9FE0
80E0
C060
FE60
FE60
FE60
8060
8060
C0E0
FFE0
7FE0
7FC0
ENDCHAR
STARTCHAR 015E
ENCODING 350
SWIDTH 600 0
DWIDTH 15 0
BBX 13 27 1 -4
BITMAP
3FC0
6060
4030
C030
8F18
9F98
9FF8
9FF8
8FF8
C060
E030
6038
7F18
FF98
9F98
9F98
8F18
C038
C038
E078
79F0
39F0
39E0
1380
1F80
1F80
0F00
ENDCHAR
STARTCHAR 015F
ENCODING 351
SWIDTH 520 0
DWIDTH 13 0
BBX 11 20 1 -4
BITMAP
7F80
C0C0
8060
9FE0
9FE0
80E0
C060
FE60
FE60
FE60
8060
8060
C0E0
F3E0
73E0
73C0
2700
3F00
3F00
1E00
ENDCHAR
STARTCHAR 0160
ENCODING 352
SWIDTH 600 0
DWIDTH 15 0
BBX 13 26 1 0
BITMAP
3FC0
2440
2460
31E0
6060
4030
C038
8F18
9F98
9FF8
9FF8
8FF8
C060
E030
6038
7F18
FF98
9F98
9F98
8F18
C038
C038
E078
7FF0
3FF0
3FE0
ENDCHAR
STARTCHAR 0161
ENCODING 353
SWIDTH 520 0
DWIDTH 13 0
BBX 11 22 1 0
BITMAP
7F80
4980
4980
63C0
77C0
37C0
7F80
C0C0
8060
9FE0
9FE0
80E0
C060
FE60
FE60
FE60
8060
8060
C0E0
FFE0
7FE0
7FC0
ENDCHAR
STARTCHAR 0164
ENCODING 356
SWIDTH 520 0
DWIDTH 13 0
BBX 11 26 1 0
BITMAP
7F80
4CC0
4CC0
E1C0
8060
8060
8060
F3E0
F3E0
F3E0
1300
1300
1300
1300
1300
1300
1300
1300
1300
1300
1300
1300
1300
1F00
1F00
0F00
ENDCHAR
STARTCHAR 0165
ENCODING 357
SWIDTH 600 0
DWIDTH 15 0
BBX 13 23 1 0
BITMAP
01F8
3D18
2718
2718
2718
2798
2738
E738
80F8
80F0
E7F0
E7C0
E7C0
E7C0
2600
2600
27C0
2060
2060
3060
3FE0
1FE0
1FE0
ENDCHAR
STARTCHAR 0166
ENCODING 358
SWIDTH 520 0
DWIDTH 13 0
BBX 11 23 1 0
BITMAP
FFC0
8060
8060
8060
F3E0
F3E0
F3E0
1300
F3C0
8060
8060
8060
F3E0
F3E0
F3E0
1300
1300
1300
1300
1300
1F00
1F00
0F00
ENDCHAR
STARTCHAR 0167
ENCODING 359
SWIDTH 480 0
DWIDTH 12 0
BBX 11 22 1 0
BITMAP
3C00
2600
2600
2600
2600
2600
E780
80C0
80C0
E7C0
E7C0
E7C0
80C0
E7C0
E7C0
E7C0
E060
2060
3060
3FE0
1FE0
1FE0
ENDCHAR
STARTCHAR 0168
ENCODING 360
SWIDTH 600 0
DWIDTH 15 0
BBX 13 26 1 0
BITMAP
1FC0
3240
2240
E8F0
9F98
9F98
9F98
9F98
9F98
9F98
9F98
9F98
9F98
9F98
9F98
9F98
9F98
9F98
9F98
CF38
C038
C038
6070
7FF0
3FF0
1FE0
ENDCHAR
STARTCHAR 0169
ENCODING 361
SWIDTH 600 0
DWIDTH 15 0
BBX 13 20 1 0
BITMAP
1FC0
3240
28C0
3FC0
FFF0
9F98
9F98
9F98
9F98
9F98
9F98
9F98
9F98
8F18
C018
C018
E098
7FF8
3FF8
3FF8
ENDCHAR
STARTCHAR 016A
ENCODING 362
SWIDTH 600 0
DWIDTH 15 0
BBX 13 26 1 0
BITMAP
3FC0
2060
2070
FFF0
9F98
9F98
9F98
9F98
9F98
9F98
9F98
9F98
9F98
9F98
9F98
9F98
9F98
9F98
9F98
CF38
C038
C038
6070
7FF0
3FF0
1FE0
ENDCHAR
STARTCHAR 016B
ENCODING 363
SWIDTH 600 0
DWIDTH 15 0
BBX 13 19 1 0
BITMAP
3FC0
2060
2060
FFF0
9F98
9F98
9F98
9F98
9F98
9F98
9F98
9F98
8F18
C018
C018
E098
7FF8
3FF8
3FF8
ENDCHAR
STARTCHAR 016E
ENCODING 366
SWIDTH 600 0
DWIDTH 15 0
BBX 13 26 1 0
BITMAP
1F80
30C0
30C0
E678
9098
9F98
9F98
9F98
9F98
9F98
9F98
9F98
9F98
9F98
9F98
9F98
9F98
9F98
9F98
CF38
C038
C038
6070
7FF0
3FF0
3FE0
ENDCHAR
STARTCHAR 016F
ENCODING 367
SWIDTH 600 0
DWIDTH 15 0
BBX 13 22 1 0
BITMAP
1F80
10C0
30C0
2640
30E0
30E0
FFF0
9F98
9F98
9F98
9F98
9F98
9F98
9F98
9F98
8F18
C018
C018
E098
7FF8
3FF8
3FF8
ENDCHAR
STARTCHAR 0170
ENCODING 368
SWIDTH 600 0
DWIDTH 15 0
BBX 13 26 1 0
BITMAP
1FF0
3118
3118
E238
9F98
9F98
9F98
9F98
9F98
9F98
9F98
9F98
9F98
9F98
9F98
9F98
9F98
9F98
9F98
CF38
C038
C038
6070
7FF0
3FF0
3FE0
ENDCHAR
STARTCHAR 0171
ENCODING 369
SWIDTH 600 0
DWIDTH 15 0
BBX 14 22 1 0
BITMAP
0FF8
088C
188C
311C
223C
3FFC
FFF8
9F98
9F98
9F98
9F98
9F98
9F98
9F98
9F98
8F18
C018
C018
E098
7FF8
3FF8
3FF8
ENDCHAR
STARTCHAR 0172
ENCODING 370
SWIDTH 600 0
DWIDTH 15 0
BBX 13 27 1 -4
BITMAP
F0F0
9898
9898
9898
9898
9898
9898
9898
9898
9898
9898
9898
9898
9898
9898
9998
CF38
C038
C038
6070
79F0
38F0
18E0
18C0
0FC0
0FC0
07C0
ENDCHAR
STARTCHAR 0173
ENCODING 371
SWIDTH 600 0
DWIDTH 15 0
BBX 13 20 1 -4
BITMAP
F0F0
9898
9898
9898
9898
9898
9898
9898
9998
8F18
C018
C018
E098
7F38
3F18
3F18
0118
01F8
01F8
00F8
ENDCHAR
STARTCHAR 0174
ENCODING 372
SWIDTH 600 0
DWIDTH 15 0
BBX 13 26 1 0
BITMAP
1F80
30C0
30C0
E670
9F98
9F98
9F98
9F98
9F98
9F98
9F98
9F98
9F98
9998
9998
9998
9098
8618
8618
8F18
8F18
8F18
9F98
FDF8
FCF8
F878
ENDCHAR
STARTCHAR 0175
ENCODING 373
SWIDTH 600 0
DWIDTH 15 0
BBX 13 22 1 0
BITMAP
0F00
0B00
1B80
3180
2440
3FC0
FFF8
9998
9998
9998
9998
9998
9998
9098
9098
C038
C638
C638
6F70
7FF0
3FF0
1CE0
ENDCHAR
STARTCHAR 0176
ENCODING 374
SWIDTH 600 0
DWIDTH 15 0
BBX 13 26 1 0
BITMAP
1F80
3180
31C0
E470
9F98
9F98
9F98
CF38
CF38
E678
6670
6670
70E0
30E0
30E0
19C0
19C0
09C0
0980
0980
0980
0980
0980
0F80
0F80
0780
ENDCHAR
STARTCHAR 0177
ENCODING 375
SWIDTH 520 0
DWIDTH 13 0
BBX 11 25 1 -3
BITMAP
1E00
1600
3700
6380
4980
7FC0
FFC0
9E60
9E60
CCE0
CCE0
CCE0
E1E0
61C0
61C0
3380
3380
3380
2700
6700
4F00
7E00
7E00
7C00
7C00
ENDCHAR
STARTCHAR 0178
ENCODING 376
SWIDTH 600 0
DWIDTH 15 0
BBX 13 26 1 0
BITMAP
3FC0
2660
2660
E670
9F98
9F98
9F98
CF38
CF38
E678
6670
6670
70E0
30E0
30E0
19C0
19C0
09C0
0980
0980
0980
0980
0980
0F80
0F80
0780
ENDCHAR
STARTCHAR 0179
ENCODING 377
SWIDTH 600 0
DWIDTH 15 0
BBX 13 26 1 0
BITMAP
07C0
0C60
0C70
F8F0
8018
8018
8018
FF38
FF38
FE78
0670
0CF0
09E0
09E0
19C0
3380
6780
4F80
4F00
CFF0
8018
8018
8018
FFF8
FFF8
FFF8
ENDCHAR
STARTCHAR 017A
ENCODING 378
SWIDTH 560 0
DWIDTH 14 0
BBX 12 22 1 0
BITMAP
07C0
0460
0C60
18E0
11E0
1FE0
FFE0
8030
8070
FCF0
FCF0
F9E0
F3E0
27C0
6780
CFE0
8030
8030
8030
FFF0
FFF0
FFF0
ENDCHAR
STARTCHAR 017B
ENCODING 379
SWIDTH 600 0
DWIDTH 15 0
BBX 13 26 1 0
BITMAP
0F00
0980
0980
F9F0
8018
8018
8018
FF38
FF38
FE78
0670
0CF0
09E0
09E0
19C0
3380
6780
4F80
4F00
CFF0
8018
8018
8018
FFF8
FFF8
FFF8
ENDCHAR
STARTCHAR 017C
ENCODING 380
SWIDTH 560 0
DWIDTH 14 0
BBX 12 20 1 0
BITMAP
1F00
1300
1300
1300
FFE0
8030
8070
FCF0
FCF0
F9E0
F3E0
27C0
6780
CFE0
8030
8030
8030
FFF0
FFF0
FFF0
ENDCHAR
STARTCHAR 017D
ENCODING 381
SWIDTH 600 0
DWIDTH 15 0
BBX 13 26 1 0
BITMAP
3FC0
2440
2440
F1F0
8018
8018
8018
FF38
FF38
FE78
0670
0CF0
09E0
09E0
19C0
3380
6780
4F80
4F00
CFF0
8018
8018
8018
FFF8
FFF8
FFF8
ENDCHAR
STARTCHAR 017E
ENCODING 382
SWIDTH 560 0
DWIDTH 14 0
BBX 12 22 1 0
BITMAP
3F80
24C0
24C0
31C0
3BC0
3BC0
FFE0
8030
8070
FCF0
FCF0
F9E0
F3E0
27C0
6780
CFE0
8030
8030
8030
FFF0
FFF0
FFF0
ENDCHAR
STARTCHAR 018E
ENCODING 398
SWIDTH 600 0
DWIDTH 15 0
BBX 13 23 1 0
BITMAP
FFF0
8018
8018
8018
FF98
FF98
FF98
0098
3F98
2018
2018
2018
3F98
3F98
1F98
0098
FF98
8018
8018
8018
FFF8
FFF8
FFF8
ENDCHAR
STARTCHAR 018F
ENCODING 399
SWIDTH 600 0
DWIDTH 15 0
BBX 13 23 1 0
BITMAP
3F80
60C0
4060
C060
8E30
9F30
FF98
FF98
FF98
8018
8018
8018
9F98
9F98
CF38
CF38
C638
6078
6070
30F0
3FE0
1FE0
0FC0
ENDCHAR
STARTCHAR 0192
ENCODING 402
SWIDTH 520 0
DWIDTH 13 0
BBX 14 26 -1 -3
BITMAP
01F8
030C
020C
060C
047C
04FC
04FC
04E0
1CF0
1018
1018
1018
1CF8
1CF8
1CF8
04C0
04C0
FCC0
FCC0
CCC0
C0C0
E1C0
7FC0
7FC0
3F80
3F80
ENDCHAR
STARTCHAR 0194
ENCODING 404
SWIDTH 600 0
DWIDTH 15 0
BBX 13 27 1 -4
BITMAP
F0F0
9098
9098
9898
9998
C938
C938
CD38
CF30
6670
6670
6670
2660
30E0
30E0
10E0
10C0
30C0
30C0
2660
2660
2660
2660
30E0
3FE0
1FE0
1FC0
ENDCHAR
STARTCHAR 019D
ENCODING 413
SWIDTH 600 0
DWIDTH 15 0
BBX 17 26 -3 -3
BITMAP
0F0F80
098980
088980
08C980
08C980
086980
093980
093980
093980
099980
099980
099980
09C980
09C980
09E180
09E180
09F180
09B180
09B180
F99980
818F80
838F80
838780
FF8000
7F0000
7F0000
ENDCHAR
STARTCHAR 01DD
ENCODING 477
SWIDTH 600 0
DWIDTH 15 0
BBX 13 16 1 0
BITMAP
3FC0
6060
4030
7F10
7F18
7F98
C018
8018
8018
9F18
C038
C038
E078
7FF0
3FF0
3FE0
ENDCHAR
STARTCHAR 01E6
ENCODING 486
SWIDTH 600 0
DWIDTH 15 0
BBX 13 26 1 0
BITMAP
1FC0
1260
1260
18F0
3030
2018
6018
4798
CFF8
9FF8
9FF8
9FF0
9C18
9C18
9C18
9F98
9F98
CF98
CF98
C798
6018
6018
3018
3FF8
1FF8
0FF8
ENDCHAR
STARTCHAR 01E7
ENCODING 487
SWIDTH 600 0
DWIDTH 15 0
BBX 13 25 1 -3
BITMAP
1FC0
1260
1260
18E0
1DE0
1DE0
3FF8
6018
C018
8F98
8F98
9F98
8F18
C018
C018
E098
7F98
7F98
7F18
4038
4078
4078
7FF0
7FE0
7FE0
ENDCHAR
STARTCHAR 01F4
ENCODING 500
SWIDTH 600 0
DWIDTH 15 0
BBX 13 26 1 0
BITMAP
07C0
0C60
0C60
18F0
3030
2018
6018
4798
CFF8
9FF8
9FF8
9FF0
9C18
9C18
9C18
9F98
9F98
CF98
CF98
C798
6018
6018
3018
3FF8
1FF8
0FF8
ENDCHAR
STARTCHAR 01F5
ENCODING 501
SWIDTH 600 0
DWIDTH 15 0
BBX 13 25 1 -3
BITMAP
07C0
0460
0C60
18E0
11E0
11E0
3FF8
6018
C018
8F98
8F98
9F98
8F18
C018
C018
E098
7F98
7F98
7F18
4038
4078
4078
7FF0
7FE0
7FE0
ENDCHAR
STARTCHAR 01F8
ENCODING 504
SWIDTH 600 0
DWIDTH 15 0
BBX 13 26 1 0
BITMAP
3E00
2300
2300
F1F8
9F98
8F98
8F98
8F98
8798
9398
9398
9398
9998
9998
9998
9C98
9C98
9E18
9E18
9F18
9B18
9B18
9998
F8F8
F8F8
F878
ENDCHAR
STARTCHAR 01F9
ENCODING 505
SWIDTH 560 0
DWIDTH 14 0
BBX 12 22 1 0
BITMAP
7C00
4600
4600
6300
7180
7180
FFC0
80C0
8060
9E20
9E30
9F30
9F30
9930
9930
9930
9930
9930
9930
F9F0
F9F0
F8F0
ENDCHAR
STARTCHAR 0218
ENCODING 536
SWIDTH 600 0
DWIDTH 15 0
BBX 13 27 1 -4
BITMAP
3FC0
6060
4030
C030
8F18
9F98
9FF8
9FF8
8FF8
C060
E030
6038
7F18
FF98
9F98
9F98
8F18
C038
C038
E078
79F0
39F0
39E0
1380
1F80
1F80
0F00
ENDCHAR
STARTCHAR 0219
ENCODING 537
SWIDTH 520 0
DWIDTH 13 0
BBX 11 20 1 -4
BITMAP
7F80
C0C0
8060
9FE0
9FE0
80E0
C060
FE60
FE60
FE60
8060
8060
C0E0
F3E0
73E0
73C0
2700
3F00
3F00
1E00
ENDCHAR
STARTCHAR 021A
ENCODING 538
SWIDTH 520 0
DWIDTH 13 0
BBX 11 27 1 -4
BITMAP
FFC0
8060
8060
8060
F3E0
F3E0
F3E0
1300
1300
1300
1300
1300
1300
1300
1300
1300
1300
1300
1300
1300
1300
3300
3300
2700
3F00
3F00
3E00
ENDCHAR
STARTCHAR 021B
ENCODING 539
SWIDTH 480 0
DWIDTH 12 0
BBX 11 26 1 -4
BITMAP
3C00
2600
2600
2600
2600
2600
E780
80C0
80C0
E7C0
E7C0
E7C0
E7C0
2600
2600
27C0
2060
2060
3060
33E0
33E0
27E0
2700
3F00
3F00
3E00
ENDCHAR
STARTCHAR 0241
ENCODING 577
SWIDTH 600 0
DWIDTH 15 0
BBX 13 23 1 0
BITMAP
3FC0
6060
4030
C030
8F18
9F98
9F18
9F18
FE38
FC78
F8F8
08F0
09E0
09E0
09C0
0980
0980
0980
0980
0980
0F80
0F80
0780
ENDCHAR
STARTCHAR 0242
ENCODING 578
SWIDTH 600 0
DWIDTH 15 0
BBX 13 16 1 0
BITMAP
3FC0
6060
C030
8F10
8F18
9F98
9F18
FE38
FE38
FC78
F8F8
08F0
09E0
0FC0
0FC0
0780
ENDCHAR
STARTCHAR 024C
ENCODING 588
SWIDTH 640 0
DWIDTH 16 0
BBX 16 23 -1 0
BITMAP
1FFC
100C
1006
1006
13E3
13F3
13F3
13F3
13F3
F3E3
C007
C007
C00F
F31F
F38E
738E
13C6
13E3
1363
1373
1F3F
1F1F
1F0F
ENDCHAR
STARTCHAR 024D
ENCODING 589
SWIDTH 520 0
DWIDTH 13 0
BBX 14 16 -1 0
BITMAP
3FF0
2418
200C
23CC
23CC
E7FC
C01C
E7F8
67F8
67F8
2600
2600
2600
3E00
3E00
3E00
ENDCHAR
STARTCHAR 0263
ENCODING 611
SWIDTH 600 0
DWIDTH 15 0
BBX 13 20 1 -4
BITMAP
F0F8
9098
9998
C938
CD38
CF38
E678
6670
6670
30E0
30E0
30E0
2660
2660
2660
2660
30E0
3FE0
1FE0
1FC0
ENDCHAR
STARTCHAR 0272
ENCODING 626
SWIDTH 560 0
DWIDTH 14 0
BBX 16 19 -3 -3
BITMAP
0FF8
080C
0806
09E2
09E3
09F3
09F3
0993
0993
0993
0993
0993
F993
819F
839F
838F
FF80
7F00
7F00
ENDCHAR
STARTCHAR 03A9
ENCODING 937
SWIDTH 600 0
DWIDTH 15 0
BBX 13 23 1 0
BITMAP
1F80
30C0
2060
6060
4630
CF30
9F98
9F98
9F98
9F98
9F98
9F98
9F98
9F98
CF38
CF38
E678
8618
8618
8618
FFF8
FFF8
FFF8
ENDCHAR
STARTCHAR 058F
ENCODING 1423
SWIDTH 600 0
DWIDTH 15 0
BBX 13 23 1 0
BITMAP
3F80
60C0
4040
4060
CE60
9F20
9F30
9F30
FF38
F018
F018
1018
1F38
1F38
1018
1018
1018
1F38
1F38
0F38
01F0
01F0
00F0
ENDCHAR
STARTCHAR 1E12
ENCODING 7698
SWIDTH 600 0
DWIDTH 15 0
BBX 13 26 1 -3
BITMAP
FF80
80C0
8060
8060
9E30
9F30
9F98
9F98
9F98
9F98
9F98
9F98
9F98
9F98
9F38
9F38
9E38
8078
8070
80F0
F1E0
E4E0
64C0
7FC0
3FC0
3FC0
ENDCHAR
STARTCHAR 1E13
ENCODING 7699
SWIDTH 600 0
DWIDTH 15 0
BBX 13 26 1 -3
BITMAP
00F0
0098
0098
0098
0098
0098
0098
3F98
6098
C018
8E18
8E18
9F98
9F98
9F98
9F98
8F98
C018
C018
E018
78F8
3278
3278
1FE0
1FE0
0FE0
ENDCHAR
STARTCHAR 1E24
ENCODING 7716
SWIDTH 600 0
DWIDTH 15 0
BBX 13 27 1 -4
BITMAP
F0F0
9898
9898
9898
9898
9898
9898
9898
9F98
8018
8018
8018
9F98
9F98
9F98
9F98
9F98
9F98
9F98
9F98
FFF8
F9F8
F9F8
0980
0F80
0F80
0780
ENDCHAR
STARTCHAR 1E25
ENCODING 7717
SWIDTH 560 0
DWIDTH 14 0
BBX 12 27 1 -4
BITMAP
F000
9000
9800
9800
9800
9800
9800
9F80
90C0
8060
8E20
8E30
9F30
9F30
9F30
9F30
9F30
9F30
9F30
9F30
FFF0
F3F0
F3F0
1300
1F00
0F00
0F00
ENDCHAR
STARTCHAR 1E3C
ENCODING 7740
SWIDTH 560 0
DWIDTH 14 0
BBX 13 27 1 -4
BITMAP
F000
9800
9800
9800
9800
9800
9800
9800
9800
9800
9800
9800
9800
9800
9800
9800
9FF0
8018
8018
8018
FFF8
F8F8
F8F8
1260
1FE0
1FE0
0FE0
ENDCHAR
STARTCHAR 1E3D
ENCODING 7741
SWIDTH 400 0
DWIDTH 10 0
BBX 9 27 1 -4
BITMAP
7C00
4600
4600
4600
6600
6600
6600
2600
2600
2600
2600
2600
2600
2600
2600
2600
E700
8180
8180
8180
FF80
C780
C780
9300
FF00
FF00
7F00
ENDCHAR
STARTCHAR 1E44
ENCODING 7748
SWIDTH 600 0
DWIDTH 15 0
BBX 13 26 1 0
BITMAP
0F00
0980
0980
F9F8
9F98
8F98
8F98
8F98
8798
9398
9398
9398
9998
9998
9998
9C98
9C98
9E18
9E18
9F18
9B18
9B18
9998
F8F8
F8F8
F878
ENDCHAR
STARTCHAR 1E45
ENCODING 7749
SWIDTH 560 0
DWIDTH 14 0
BBX 12 20 1 0
BITMAP
1E00
1300
1300
1300
FF80
80C0
8060
9E20
9E30
9F30
9F30
9930
9930
9930
9930
9930
9930
F9F0
F9F0
F8F0
ENDCHAR
STARTCHAR 1E4A
ENCODING 7754
SWIDTH 600 0
DWIDTH 15 0
BBX 13 27 1 -4
BITMAP
F0F8
9898
8898
8C98
8C98
8698
9398
9398
9398
9998
9998
9998
9C98
9C98
9E18
9E18
9F18
9F18
9F18
9F98
FFF8
F8F8
F8F8
1260
1FE0
1FE0
0FE0
ENDCHAR
STARTCHAR 1E4B
ENCODING 7755
SWIDTH 560 0
DWIDTH 14 0
BBX 12 20 1 -4
BITMAP
FF80
80C0
8060
9E20
9E30
9F30
9F30
9F30
9F30
9F30
9F30
9F30
9F30
FFF0
F1F0
F1F0
24C0
3FC0
3FC0
3FC0
ENDCHAR
STARTCHAR 1E5A
ENCODING 7770
SWIDTH 600 0
DWIDTH 15 0
BBX 13 27 1 -4
BITMAP
FFC0
8060
8030
8030
9F18
9F98
9F98
9F98
9F98
9F18
8038
8038
8078
98F0
9C70
9C70
9E30
9F18
9F18
9F98
FFF8
F9F8
F9F8
0980
0F80
0F80
0780
ENDCHAR
STARTCHAR 1E5B
ENCODING 7771
SWIDTH 520 0
DWIDTH 13 0
BBX 12 20 1 -4
BITMAP
FFC0
9060
8030
8F30
8F30
9FF0
9FF0
9CF0
9800
9800
9800
9800
9800
F800
9800
9800
9800
F800
F800
F800
ENDCHAR
STARTCHAR 1E62
ENCODING 7778
SWIDTH 600 0
DWIDTH 15 0
BBX 13 27 1 -4
BITMAP
3FC0
6060
4030
C030
8F18
9F98
9FF8
9FF8
8FF8
C060
E030
6038
7F18
FF98
9F98
9F98
8F18
C038
C038
E078
7FF0
39F0
39E0
0980
0F80
0F80
0780
ENDCHAR
STARTCHAR 1E63
ENCODING 7779
SWIDTH 520 0
DWIDTH 13 0
BBX 11 20 1 -4
BITMAP
7F80
C0C0
8060
9FE0
9FE0
80E0
C060
FE60
FE60
FE60
8060
8060
C0E0
FFE0
73E0
73C0
1300
1F00
1F00
0F00
ENDCHAR
STARTCHAR 1E6C
ENCODING 7788
SWIDTH 520 0
DWIDTH 13 0
BBX 11 27 1 -4
BITMAP
FFC0
8060
8060
8060
F3E0
F3E0
F3E0
1300
1300
1300
1300
1300
1300
1300
1300
1300
1300
1300
1300
1300
1F00
1300
1300
1300
1F00
1F00
0F00
ENDCHAR
STARTCHAR 1E6D
ENCODING 7789
SWIDTH 480 0
DWIDTH 12 0
BBX 11 26 1 -4
BITMAP
3C00
2600
2600
2600
2600
2600
E780
80C0
80C0
E7C0
E7C0
E7C0
E7C0
2600
2600
27C0
2060
2060
3060
3FE0
13E0
13E0
1300
1F00
1F00
0F00
ENDCHAR
STARTCHAR 1E80
ENCODING 7808
SWIDTH 600 0
DWIDTH 15 0
BBX 13 26 1 0
BITMAP
3E00
2300
2300
F1F0
9F98
9F98
9F98
9F98
9F98
9F98
9F98
9F98
9F98
9998
9998
9998
9098
8618
8618
8F18
8F18
8F18
9D98
FCF8
FCF8
F878
ENDCHAR
STARTCHAR 1E81
ENCODING 7809
SWIDTH 600 0
DWIDTH 15 0
BBX 13 22 1 0
BITMAP
7C00
4600
4600
6300
7100
7180
FFF8
9998
9998
9998
9998
9998
9998
9098
9098
C038
C638
C638
6F70
7FF0
3FF0
1CE0
ENDCHAR
STARTCHAR 1E82
ENCODING 7810
SWIDTH 600 0
DWIDTH 15 0
BBX 13 26 1 0
BITMAP
07C0
0C60
0C60
F8F0
9F98
9F98
9F98
9F98
9F98
9F98
9F98
9F98
9F98
9998
9998
9998
9098
8618
8618
8F18
8F18
8F18
9D98
FCF8
FCF8
F878
ENDCHAR
STARTCHAR 1E83
ENCODING 7811
SWIDTH 600 0
DWIDTH 15 0
BBX 13 22 1 0
BITMAP
03E0
0230
0630
0C70
08F0
08F0
FFF0
9998
9998
9998
9998
9998
9998
9098
9098
C038
C638
C638
6F70
7FF0
3FF0
1CE0
ENDCHAR
STARTCHAR 1E84
ENCODING 7812
SWIDTH 600 0
DWIDTH 15 0
BBX 13 26 1 0
BITMAP
3FC0
2660
2660
FFF0
9F98
9F98
9F98
9F98
9F98
9F98
9F98
9F98
9F98
9998
9998
9998
9098
8618
8618
8F18
8F18
8F18
9D98
FCF8
FCF8
F878
ENDCHAR
STARTCHAR 1E85
ENCODING 7813
SWIDTH 600 0
DWIDTH 15 0
BBX 13 20 1 0
BITMAP
3FC0
2660
2660
2660
FFF8
9998
9998
9998
9998
9998
9998
9098
9098
C038
C638
C638
6F70
7FF0
3FF0
1CE0
ENDCHAR
STARTCHAR 1E92
ENCODING 7826
SWIDTH 600 0
DWIDTH 15 0
BBX 13 27 1 -4
BITMAP
FFF0
8018
8018
8018
FF38
FF38
7F38
0670
0CF0
09F0
09E0
19C0
3380
6780
4780
4F00
CFF0
8018
8018
8018
FFF8
F9F8
F9F8
0980
0F80
0F80
0780
ENDCHAR
STARTCHAR 1E93
ENCODING 7827
SWIDTH 560 0
DWIDTH 14 0
BBX 12 20 1 -4
BITMAP
FFE0
8030
8070
FCF0
FCF0
F9E0
F3E0
27C0
6780
CFE0
8030
8030
8030
FFF0
F3F0
F3F0
1300
1F00
0F00
0F00
ENDCHAR
STARTCHAR 1E9E
ENCODING 7838
SWIDTH 680 0
DWIDTH 17 0
BBX 15 23 1 0
BITMAP
3FFE
6006
4006
C006
8F8E
9F1E
9E3E
9E3C
9C78
981C
980C
980E
9FC6
9FE6
9FE6
9FE6
9FC6
980E
980E
981E
FFFC
FFFC
FFF8
ENDCHAR
STARTCHAR 1EF2
ENCODING 7922
SWIDTH 600 0
DWIDTH 15 0
BBX 13 26 1 0
BITMAP
3E00
2300
2300
F1F0
9F98
9F98
9F98
CF38
CF38
E678
6670
6670
70E0
30E0
30E0
19C0
19C0
09C0
0980
0980
0980
0980
0980
0F80
0F80
0780
ENDCHAR
STARTCHAR 1EF3
ENCODING 7923
SWIDTH 520 0
DWIDTH 13 0
BBX 11 25 1 -3
BITMAP
F800
8C00
8C00
C600
E200
6300
FFC0
9E60
9E60
CCE0
CCE0
CCE0
E1E0
61C0
61C0
7380
3380
3380
2700
6700
4F00
4E00
7E00
7C00
7C00
ENDCHAR
STARTCHAR 200B
ENCODING 8203
SWIDTH 0 0
DWIDTH 0 0
BBX 0 0 0 0
BITMAP
ENDCHAR
STARTCHAR 2010
ENCODING 8208
SWIDTH 520 0
DWIDTH 13 0
BBX 11 7 1 7
BITMAP
FFC0
8060
8060
8060
FFE0
FFE0
FFE0
ENDCHAR
STARTCHAR 2013
ENCODING 8211
SWIDTH 560 0
DWIDTH 14 0
BBX 15 7 -1 7
BITMAP
FFFC
C006
C006
C006
FFFE
7FFE
7FFE
ENDCHAR
STARTCHAR 2014
ENCODING 8212
SWIDTH 680 0
DWIDTH 17 0
BBX 18 7 -1 7
BITMAP
FFFFC0
C000C0
C000C0
C000C0
FFFFC0
7FFFC0
7FFFC0
ENDCHAR
STARTCHAR 2018
ENCODING 8216
SWIDTH 280 0
DWIDTH 7 0
BBX 6 11 1 12
BITMAP
78
CC
9C
9C
8C
8C
8C
8C
FC
FC
FC
ENDCHAR
STARTCHAR 2019
ENCODING 8217
SWIDTH 280 0
DWIDTH 7 0
BBX 6 11 1 12
BITMAP
F8
8C
8C
8C
8C
CC
9C
FC
FC
F8
F8
ENDCHAR
STARTCHAR 201A
ENCODING 8218
SWIDTH 280 0
DWIDTH 7 0
BBX 6 11 1 -3
BITMAP
F8
8C
8C
8C
8C
CC
9C
FC
FC
F8
F8
ENDCHAR
STARTCHAR 201C
ENCODING 8220
SWIDTH 480 0
DWIDTH 12 0
BBX 10 11 1 12
BITMAP
7F80
CCC0
99C0
99C0
88C0
88C0
88C0
88C0
FFC0
FFC0
FFC0
ENDCHAR
STARTCHAR 201D
ENCODING 8221
SWIDTH 480 0
DWIDTH 12 0
BBX 10 11 1 12
BITMAP
FF80
88C0
88C0
88C0
88C0
CCC0
99C0
FFC0
FFC0
FF80
FF80
ENDCHAR
STARTCHAR 201E
ENCODING 8222
SWIDTH 480 0
DWIDTH 12 0
BBX 10 11 1 -3
BITMAP
FF80
88C0
88C0
88C0
88C0
CCC0
99C0
FFC0
FFC0
FF80
FF80
ENDCHAR
STARTCHAR 2020
ENCODING 8224
SWIDTH 520 0
DWIDTH 13 0
BBX 11 20 1 3
BITMAP
1E00
1300
1300
1300
F3C0
8060
8060
8060
F3E0
F3E0
F3E0
1300
1300
1300
1300
1300
1300
1F00
1F00
0F00
ENDCHAR
STARTCHAR 2021
ENCODING 8225
SWIDTH 520 0
DWIDTH 13 0
BBX 11 23 1 0
BITMAP
1E00
1300
1300
1300
F3C0
8060
8060
8060
F3E0
F3E0
F3E0
1300
F3C0
8060
8060
8060
F3E0
F3E0
F3E0
1300
1F00
1F00
0F00
ENDCHAR
STARTCHAR 2022
ENCODING 8226
SWIDTH 400 0
DWIDTH 10 0
BBX 8 10 1 5
BITMAP
FE
83
83
83
83
83
83
FF
FF
FF
ENDCHAR
STARTCHAR 2026
ENCODING 8230
SWIDTH 640 0
DWIDTH 16 0
BBX 14 8 1 0
BITMAP
FFFC
888C
888C
888C
888C
FFFC
FFFC
FFFC
ENDCHAR
STARTCHAR 2030
ENCODING 8240
SWIDTH 600 0
DWIDTH 15 0
BBX 14 22 1 0
BITMAP
F878
884C
8CCC
8D8C
8F1C
FE3C
FE3C
FC78
18F0
11F0
31E0
63C0
C7C0
CF80
8FFC
988C
F88C
F88C
F88C
0FFC
0FFC
07FC
ENDCHAR
STARTCHAR 2039
ENCODING 8249
SWIDTH 400 0
DWIDTH 10 0
BBX 8 15 1 4
BITMAP
1E
33
23
63
C7
8F
8F
8E
C6
E3
73
73
3F
1F
1F
ENDCHAR
STARTCHAR 203A
ENCODING 8250
SWIDTH 400 0
DWIDTH 10 0
BBX 8 15 1 4
BITMAP
F0
98
88
8C
C6
E2
E3
63
C7
8F
9F
9E
FC
FC
F8
ENDCHAR
STARTCHAR 2044
ENCODING 8260
SWIDTH 240 0
DWIDTH 6 0
BBX 15 21 -5 1
BITMAP
001C
0016
0036
0066
00C6
008E
018E
031E
0E3C
0C7C
1C78
38F0
61F0
43E0
C3C0
8F80
9F80
9F00
FE00
7C00
7C00
ENDCHAR
STARTCHAR 20A9
ENCODING 8361
SWIDTH 600 0
DWIDTH 15 0
BBX 16 23 -1 0
BITMAP
3C3C
2426
2626
E7E7
C003
C003
E7E7
E7E7
C003
C003
E667
6667
6667
2427
2426
2186
23C6
23C6
23C6
2766
3F3E
3F3E
3E1E
ENDCHAR
STARTCHAR 20AA
ENCODING 8362
SWIDTH 640 0
DWIDTH 16 0
BBX 14 19 1 0
BITMAP
FF7C
81CC
80CC
80CC
9C4C
924C
924C
924C
924C
924C
924C
924C
91CC
980C
980C
9C0C
FFFC
FFFC
FBFC
ENDCHAR
STARTCHAR 20AB
ENCODING 8363
SWIDTH 600 0
DWIDTH 15 0
BBX 14 23 1 0
BITMAP
00F0
0098
0098
0098
3F9C
200C
3F9C
3F9C
609C
C018
8E18
8E18
9F98
9F98
9F98
9F98
8F98
C018
C018
E018
7FF8
3FF8
3FF8
ENDCHAR
STARTCHAR 20AC
ENCODING 8364
SWIDTH 600 0
DWIDTH 15 0
BBX 13 23 1 0
BITMAP
1FC0
3060
2030
6030
4718
CF98
9FF8
9FF8
8078
9FE0
9FE0
9FE0
8060
9FF0
CF98
CF98
C718
6038
6038
3078
3FF0
1FF0
0FE0
ENDCHAR
STARTCHAR 20AD
ENCODING 8365
SWIDTH 600 0
DWIDTH 15 0
BBX 15 23 -1 0
BITMAP
3C3C
2466
2646
26C6
278E
271E
263E
263C
E47C
C006
C006
C006
E47E
663E
671E
2718
278C
27C6
26C6
26E6
3E7E
3E3E
3E1E
ENDCHAR
STARTCHAR 20AE
ENCODING 8366
SWIDTH 520 0
DWIDTH 13 0
BBX 11 23 1 0
BITMAP
FFC0
8060
8060
8060
F360
F260
F0E0
10E0
31E0
6360
4260
C260
90E0
B1E0
E3E0
E3C0
C380
9380
9300
B300
FF00
FF00
FF00
ENDCHAR
STARTCHAR 20B1
ENCODING 8369
SWIDTH 680 0
DWIDTH 17 0
BBX 15 23 1 0
BITMAP
3FC0
2060
2030
2030
E71E
8006
8006
8006
E79E
8006
8006
8006
E71E
E03E
607E
2078
27F8
27F0
27E0
2600
3E00
3E00
3E00
ENDCHAR
STARTCHAR 20B2
ENCODING 8370
SWIDTH 600 0
DWIDTH 15 0
BBX 15 23 -1 0
BITMAP
07F8
0C0C
0806
1806
11E6
33C6
278E
278E
271E
2606
2406
2406
20E6
21E6
23E6
E3E6
C1E6
C806
C806
FC06
7FFE
7FFE
07FE
ENDCHAR
STARTCHAR 20B4
ENCODING 8372
SWIDTH 560 0
DWIDTH 14 0
BBX 14 23 -1 0
BITMAP
0FC0
1860
1020
3030
2318
FF98
C00C
C00C
C00C
FC7C
F8FC
F8FC
C00C
C00C
E7FC
E7FC
631C
303C
3038
1878
1FF0
0FF0
0FE0
ENDCHAR
STARTCHAR 20B8
ENCODING 8376
SWIDTH 520 0
DWIDTH 13 0
BBX 11 23 1 0
BITMAP
FFC0
8060
8060
8060
FFE0
FFE0
8060
8060
8060
F3E0
F3E0
F3E0
1300
1300
1300
1300
1300
1300
1300
1300
1F00
1F00
0F00
ENDCHAR
STARTCHAR 20B9
ENCODING 8377
SWIDTH 600 0
DWIDTH 15 0
BBX 13 23 1 0
BITMAP
FFF0
8018
8018
8018
FF38
FF38
8018
8018
8018
FC78
F8F8
F8F8
11E0
18E0
18C0
1C60
0E30
0710
0318
0398
01F8
00F8
0078
ENDCHAR
STARTCHAR 20BA
ENCODING 8378
SWIDTH 600 0
DWIDTH 15 0
BBX 13 23 1 0
BITMAP
7800
4FC0
4E60
4E60
4860
C1E0
87E0
87E0
8E60
C860
C1E0
C1F8
8798
8F98
CF38
CF38
CE38
4078
4070
40F0
7FE0
7FE0
7FC0
ENDCHAR
STARTCHAR 20BC
ENCODING 8380
SWIDTH 600 0
DWIDTH 15 0
BBX 13 23 1 0
BITMAP
0F00
0980
0980
0980
0980
1980
10C0
30C0
6060
4020
4930
C930
9998
9998
9998
9998
9998
9998
9998
9F98
FFF8
FFF8
F878
ENDCHAR
STARTCHAR 20BD
ENCODING 8381
SWIDTH 600 0
DWIDTH 15 0
BBX 13 23 1 0
BITMAP
3FC0
2060
2030
2030
2718
2798
2798
2798
2798
E718
8038
8038
8078
E7F8
E7F0
E7E0
8060
8060
8060
E7E0
FFE0
7FE0
3E00
ENDCHAR
STARTCHAR 20BE
ENCODING 8382
SWIDTH 640 0
DWIDTH 16 0
BBX 14 23 1 0
BITMAP
0F80
3AF0
2030
6038
C018
8A8C
9ACC
9ACC
9AFC
9AFC
9FFC
9FC0
9FC0
8FC0
8C00
C600
E300
8180
8180
8180
FF80
FF80
FF80
ENDCHAR
STARTCHAR 2113
ENCODING 8467
SWIDTH 560 0
DWIDTH 14 0
BBX 12 23 1 0
BITMAP
07C0
1C60
1030
1030
3330
2730
6730
6670
4E70
4CE0
4CE0
4CE0
49E0
6030
6030
6030
F3F0
87F0
87F0
8700
FE00
FE00
FE00
ENDCHAR
STARTCHAR 2116
ENCODING 8470
SWIDTH 920 0
DWIDTH 23 0
BBX 22 23 1 0
BITMAP
F0F7E0
989C30
889810
8C9818
8C93CC
8693CC
9393CC
9393CC
9393CC
99981C
999C3C
999C3C
9C9FF8
9C9008
9E100C
9E100C
9F1FFC
9B1FFC
9B1FFC
999800
F8F800
F8F800
F87800
ENDCHAR
STARTCHAR 2117
ENCODING 8471
SWIDTH 720 0
DWIDTH 18 0
BBX 16 23 1 0
BITMAP
1FF8
3018
200C
600C
47C6
CFE6
9873
9873
9BB3
9BB3
9873
9BF3
9BF3
9BF3
CFE7
CFE7
C7C7
600F
600E
301E
3FFC
1FFC
0FF8
ENDCHAR
STARTCHAR 2122
ENCODING 8482
SWIDTH 640 0
DWIDTH 16 0
BBX 14 12 1 11
BITMAP
FFFC
82EC
EE4C
EE4C
EEAC
2EEC
2EEC
2EEC
2EEC
3FFC
3FFC
3FFC
ENDCHAR
STARTCHAR 2212
ENCODING 8722
SWIDTH 520 0
DWIDTH 13 0
BBX 11 7 1 7
BITMAP
FFC0
8060
8060
8060
FFE0
FFE0
FFE0
ENDCHAR
STARTCHAR 221E
ENCODING 8734
SWIDTH 760 0
DWIDTH 19 0
BBX 17 15 1 1
BITMAP
3E7E00
63C600
C18300
8C3180
8C3180
9E7980
9E7980
8C3180
8C3180
C18380
E3C780
63C780
7FFF00
3F3E00
3F3E00
ENDCHAR
STARTCHAR 2248
ENCODING 8776
SWIDTH 600 0
DWIDTH 15 0
BBX 13 14 1 4
BITMAP
3EF0
2298
6398
C938
9C78
FFF8
FFF8
E398
C938
9C78
9C78
FFF0
FFF0
FBE0
ENDCHAR
STARTCHAR 25CA
ENCODING 9674
SWIDTH 640 0
DWIDTH 16 0
BBX 14 23 1 0
BITMAP
0700
0D80
08C0
18E0
3060
6230
4718
C718
8F8C
9FCC
9FCC
9FCC
8F8C
C71C
E23C
623C
7078
38F8
18F0
1DE0
0FC0
07C0
0380
ENDCHAR
ENDFONT
